# 3ds Max Wavefront OBJ Exporter v0.99 - (c)2007 guruware
# File Created: 11.11.2023 18:41:54

#
# object ParedesVentana_Mesh_036
#

v  -3.5391 0.7746 -0.1800
v  3.5617 0.7746 -0.1800
v  3.5616 3.5283 -0.1800
v  -3.5392 3.5283 -0.1800
v  -5.5380 5.1342 0.1945
v  5.5380 5.1342 0.1945
v  5.5380 5.2342 0.1237
v  -5.5380 5.2342 0.1237
v  -5.5380 4.7680 0.0971
v  -5.5380 4.6680 0.1945
v  5.5380 4.6680 0.1945
v  5.5380 4.7680 0.0971
v  -5.5380 4.3018 0.1237
v  5.5380 4.3018 0.1237
v  5.5380 4.3768 0.1414
v  -5.5380 4.3768 0.1414
v  5.5380 8.7247 -0.2015
v  -5.5380 8.7247 -0.2015
v  -5.5380 5.2342 -0.2015
v  5.5380 5.2342 -0.2015
v  -5.5380 4.4018 0.1945
v  5.5380 4.4018 0.1945
v  5.5380 4.3018 0.0247
v  -5.5380 4.3018 0.0247
v  -5.5380 4.8680 0.1945
v  5.5380 4.8680 0.1945
v  -4.1917 0.5215 0.0032
v  -5.5380 0.0000 -0.0000
v  5.5380 0.0000 -0.0000
v  4.2144 0.5215 0.0032
v  4.2143 3.7814 0.0200
v  -4.1918 3.7814 0.0200
v  5.5380 18.9582 -0.2015
v  5.5380 24.0011 -0.2015
v  -5.5380 24.0011 -0.2015
v  -5.5380 18.9582 -0.2015
# 36 vertices

vn 0.0000 0.0000 1.0000
vn 0.0000 0.5774 0.8165
vn 0.0000 0.6976 0.7165
vn 0.0000 -0.2294 0.9733
vn 0.0000 1.0000 -0.0000
vn 0.0000 -1.0000 -0.0000
vn 0.0000 -0.6976 0.7165
vn 0.0000 -0.9045 0.4264
vn 0.0002 -0.0058 1.0000
vn 0.0005 -0.0056 1.0000
vn -0.0005 -0.0056 1.0000
vn -0.0002 -0.0058 1.0000
vn -0.0005 -0.0064 1.0000
vn -0.0002 -0.0076 1.0000
vn 0.0005 -0.0064 1.0000
vn 0.0002 -0.0076 1.0000
vn 0.0000 0.5863 0.8101
vn -0.2816 -0.0027 0.9595
vn 0.0000 -0.6200 0.7846
vn 0.2817 -0.0027 0.9595
# 20 vertex normals

vt 0.0494 0.5833 0.0000
vt 0.0502 0.8964 0.0000
vt 0.1703 0.8961 0.0000
vt 0.1696 0.5832 0.0000
vt 0.2576 0.4946 0.0000
vt 0.2588 0.9788 0.0000
vt 0.2650 0.9810 0.0000
vt 0.2639 0.4946 0.0000
vt 0.2384 0.4899 0.0000
vt 0.2309 0.4947 0.0000
vt 0.2321 0.9789 0.0000
vt 0.2396 0.9771 0.0000
vt 0.2122 0.4947 0.0000
vt 0.2134 0.9812 0.0000
vt 0.2169 0.9806 0.0000
vt 0.2157 0.4947 0.0000
vt 0.8032 0.5065 0.0000
vt 0.4600 0.5065 0.0000
vt 0.4600 0.3994 0.0000
vt 0.8032 0.3994 0.0000
vt 0.2853 0.9911 0.0000
vt 0.2841 0.4946 0.0000
vt 0.2192 0.4947 0.0000
vt 0.2204 0.9789 0.0000
vt 0.2072 0.9843 0.0000
vt 0.2061 0.4947 0.0000
vt 0.2459 0.4947 0.0000
vt 0.2471 0.9788 0.0000
vt 0.0356 0.5542 0.0000
vt 0.0125 0.4950 0.0000
vt 0.0137 0.9849 0.0000
vt 0.0364 0.9256 0.0000
vt 0.1842 0.9251 0.0000
vt 0.1833 0.5539 0.0000
vt 0.8032 0.8239 0.0000
vt 0.8032 0.9799 0.0000
vt 0.4600 0.9799 0.0000
vt 0.4600 0.8239 0.0000
# 38 texture coords

o ParedesVentana_Mesh_036
g ParedesVentana_Mesh_036
f 1/1/1 2/2/1 3/3/1 
f 3/3/1 4/4/1 1/1/1 
f 5/5/2 6/6/2 7/7/2 
f 7/7/2 8/8/2 5/5/2 
f 9/9/3 10/10/3 11/11/3 
f 11/11/3 12/12/3 9/9/3 
f 13/13/4 14/14/4 15/15/4 
f 15/15/4 16/16/4 13/13/4 
f 17/17/1 18/18/1 19/19/1 
f 19/19/1 20/20/1 17/17/1 
f 20/21/5 19/22/5 8/8/5 
f 8/8/5 7/7/5 20/21/5 
f 11/11/1 10/10/1 21/23/1 
f 21/23/1 22/24/1 11/11/1 
f 23/25/6 14/14/6 13/13/6 
f 13/13/6 24/26/6 23/25/6 
f 6/6/1 5/5/1 25/27/1 
f 25/27/1 26/28/1 6/6/1 
f 26/28/7 25/27/7 9/9/7 
f 9/9/7 12/12/7 26/28/7 
f 22/24/8 21/23/8 16/16/8 
f 16/16/8 15/15/8 22/24/8 
f 27/29/9 28/30/10 29/31/11 
f 29/31/11 30/32/12 27/29/9 
f 30/32/12 29/31/11 23/25/13 
f 23/25/13 31/33/14 30/32/12 
f 31/33/14 23/25/13 24/26/15 
f 24/26/15 32/34/16 31/33/14 
f 32/34/16 24/26/15 28/30/10 
f 28/30/10 27/29/9 32/34/16 
f 1/1/17 27/29/17 30/32/17 
f 30/32/17 2/2/17 1/1/17 
f 2/2/18 30/32/18 31/33/18 
f 31/33/18 3/3/18 2/2/18 
f 3/3/19 31/33/19 32/34/19 
f 32/34/19 4/4/19 3/3/19 
f 4/4/20 32/34/20 27/29/20 
f 27/29/20 1/1/20 4/4/20 
f 33/35/1 34/36/1 35/37/1 
f 35/37/1 36/38/1 33/35/1 
# 40 faces

