# 3ds Max Wavefront OBJ Exporter v0.99 - (c)2007 guruware
# File Created: 11.11.2023 18:58:47

#
# object ParedesSinVentana_006_Mesh_029
#

v  0.1782 0.7746 -3.6402
v  0.1782 0.7746 3.4606
v  0.1782 3.5283 3.4605
v  0.1782 3.5283 -3.6403
v  0.1998 8.7247 -5.6392
v  0.1998 8.7247 5.4369
v  0.1998 18.9582 5.4369
v  0.1998 18.9582 -5.6392
v  -0.1962 5.1342 -5.6392
v  -0.1971 5.1342 5.8368
v  -0.1232 5.2342 5.7659
v  -0.1255 5.2342 -5.6392
v  -0.1002 4.7680 5.7411
v  -0.0989 4.7680 -5.6392
v  -0.1962 4.6680 -5.6392
v  -0.1946 4.6680 5.8368
v  0.1998 5.2342 -5.6392
v  0.1998 5.2342 5.4369
v  -0.1962 4.4018 -5.6392
v  -0.1950 4.4018 5.8350
v  -0.1962 4.8680 -5.6392
v  -0.1997 4.8680 5.8332
v  -0.1432 4.3768 -5.6392
v  -0.1448 4.3768 5.7783
v  -0.0049 0.5215 4.1133
v  -0.0049 0.5215 -4.2928
v  -0.0018 0.0000 -5.6392
v  0.0018 0.0000 5.6392
v  -0.0269 4.3018 5.6631
v  -0.0218 3.7814 4.1132
v  -0.0265 4.3018 -5.6392
v  -0.0218 3.7814 -4.2929
v  0.1998 24.0011 5.4369
v  0.1998 24.0011 -5.6392
v  -0.1255 4.3018 -5.6392
v  -0.1254 4.3025 5.7630
# 36 vertices

vn -1.0000 0.0000 -0.0000
vn -0.8102 0.5861 0.0001
vn -0.7219 0.6920 -0.0000
vn 0.0000 1.0000 -0.0000
vn -1.0000 0.0008 0.0001
vn -1.0000 0.0048 -0.0002
vn -0.7128 -0.7014 -0.0002
vn -0.4358 -0.9000 -0.0000
vn -1.0000 -0.0081 0.0003
vn -1.0000 -0.0078 0.0004
vn -1.0000 -0.0064 0.0005
vn -1.0000 -0.0067 0.0004
vn -1.0000 -0.0081 0.0002
vn -1.0000 -0.0064 0.0004
vn -1.0000 -0.0079 0.0002
vn -0.8101 0.5863 -0.0000
vn -0.9595 -0.0027 -0.2816
vn -0.7846 -0.6200 -0.0000
vn -0.9595 -0.0027 0.2817
vn -0.9705 -0.2409 -0.0001
vn -0.1885 -0.9821 -0.0000
vn -0.8773 -0.4788 -0.0337
vn 0.1793 -0.9838 -0.0064
vn 0.2086 -0.9780 -0.0018
# 24 vertex normals

vt 0.0494 0.5833 0.0000
vt 0.0502 0.8964 0.0000
vt 0.1703 0.8961 0.0000
vt 0.1696 0.5832 0.0000
vt 0.4600 0.5065 0.0000
vt 0.8032 0.5065 0.0000
vt 0.8032 0.8239 0.0000
vt 0.4600 0.8239 0.0000
vt 0.2576 0.4946 0.0000
vt 0.2588 0.9788 0.0000
vt 0.2650 0.9810 0.0000
vt 0.2639 0.4946 0.0000
vt 0.2396 0.9771 0.0000
vt 0.2384 0.4899 0.0000
vt 0.2309 0.4947 0.0000
vt 0.2321 0.9789 0.0000
vt 0.4600 0.3994 0.0000
vt 0.8032 0.3994 0.0000
vt 0.2853 0.9911 0.0000
vt 0.2841 0.4946 0.0000
vt 0.2192 0.4947 0.0000
vt 0.2204 0.9789 0.0000
vt 0.2459 0.4947 0.0000
vt 0.2471 0.9788 0.0000
vt 0.2157 0.4947 0.0000
vt 0.2169 0.9806 0.0000
vt 0.0364 0.9256 0.0000
vt 0.0356 0.5542 0.0000
vt 0.0125 0.4950 0.0000
vt 0.0137 0.9849 0.0000
vt 0.2072 0.9843 0.0000
vt 0.1842 0.9251 0.0000
vt 0.2061 0.4947 0.0000
vt 0.1833 0.5539 0.0000
vt 0.8032 0.9799 0.0000
vt 0.4600 0.9799 0.0000
vt 0.2122 0.4947 0.0000
vt 0.2134 0.9812 0.0000
# 38 texture coords

o ParedesSinVentana_006_Mesh_029
g ParedesSinVentana_006_Mesh_029
f 1/1/1 2/2/1 3/3/1 
f 3/3/1 4/4/1 1/1/1 
f 5/5/1 6/6/1 7/7/1 
f 7/7/1 8/8/1 5/5/1 
f 9/9/2 10/10/2 11/11/2 
f 11/11/2 12/12/2 9/9/2 
f 13/13/3 14/14/3 15/15/3 
f 15/15/3 16/16/3 13/13/3 
f 6/6/1 5/5/1 17/17/1 
f 17/17/1 18/18/1 6/6/1 
f 18/19/4 17/20/4 12/12/4 
f 12/12/4 11/11/4 18/19/4 
f 16/16/5 15/15/5 19/21/5 
f 19/21/5 20/22/5 16/16/5 
f 10/10/6 9/9/6 21/23/6 
f 21/23/6 22/24/6 10/10/6 
f 13/13/7 22/24/7 21/23/7 
f 21/23/7 14/14/7 13/13/7 
f 20/22/8 19/21/8 23/25/8 
f 23/25/8 24/26/8 20/22/8 
f 25/27/9 26/28/10 27/29/11 
f 27/29/11 28/30/12 25/27/9 
f 25/27/9 28/30/12 29/31/12 
f 29/31/12 30/32/13 25/27/9 
f 30/32/13 29/31/12 31/33/14 
f 31/33/14 32/34/15 30/32/13 
f 32/34/15 31/33/14 27/29/11 
f 27/29/11 26/28/10 32/34/15 
f 1/1/16 26/28/16 25/27/16 
f 25/27/16 2/2/16 1/1/16 
f 2/2/17 25/27/17 30/32/17 
f 30/32/17 3/3/17 2/2/17 
f 3/3/18 30/32/18 32/34/18 
f 32/34/18 4/4/18 3/3/18 
f 4/4/19 32/34/19 26/28/19 
f 26/28/19 1/1/19 4/4/19 
f 7/7/1 33/35/1 34/36/1 
f 34/36/1 8/8/1 7/7/1 
f 23/25/20 35/37/21 36/38/22 
f 36/38/22 24/26/20 23/25/20 
f 29/31/23 36/38/22 35/37/21 
f 35/37/21 31/33/24 29/31/23 
# 42 faces

