# 3ds Max Wavefront OBJ Exporter v0.99 - (c)2007 guruware
# File Created: 11.11.2023 18:40:52

#
# object ParedesSinVentana_003_Mesh_033
#

v  -3.4401 0.7746 -0.1804
v  3.6607 0.7746 -0.1804
v  3.6606 3.5283 -0.1804
v  -3.4402 3.5283 -0.1804
v  -5.4390 8.7247 -0.2019
v  5.6370 8.7247 -0.2019
v  5.6370 18.9582 -0.2019
v  -5.4390 18.9582 -0.2019
v  -5.7620 5.2342 0.1271
v  -5.8359 5.1342 0.1980
v  5.6370 5.1342 0.1941
v  5.6370 5.2342 0.1234
v  -5.7390 4.7680 0.1023
v  -5.8334 4.6680 0.1980
v  5.6370 4.6680 0.1941
v  5.6370 4.7680 0.0967
v  -5.7642 4.3025 0.1242
v  5.6370 4.3018 0.1234
v  5.6370 4.3768 0.1411
v  -5.7836 4.3768 0.1395
v  -5.4390 5.2342 -0.2019
v  5.6370 5.2342 -0.2019
v  -5.8338 4.4018 0.1962
v  5.6370 4.4018 0.1941
v  -5.8385 4.8680 0.1944
v  5.6370 4.8680 0.1941
v  -4.0927 0.5215 0.0028
v  -5.6370 0.0000 0.0004
v  5.6370 0.0000 -0.0004
v  4.3134 0.5215 0.0028
v  5.6370 4.3018 0.0244
v  4.3133 3.7814 0.0196
v  -4.0928 3.7814 0.0196
v  -5.6657 4.3018 0.0243
v  5.6370 24.0011 -0.2019
v  -5.4390 24.0011 -0.2019
# 36 vertices

vn 0.0000 0.0000 1.0000
vn 0.0003 0.5776 0.8163
vn 0.0003 0.6943 0.7197
vn 0.0287 -0.4622 0.8863
vn 0.0047 -0.9826 0.1859
vn 0.0000 -0.2165 0.9763
vn -0.0002 -0.2163 0.9763
vn 0.0000 1.0000 -0.0000
vn 0.0003 -0.0033 1.0000
vn 0.0002 -0.0067 1.0000
vn 0.0002 -0.6877 0.7260
vn 0.0000 -0.9099 0.4147
vn 0.0003 -0.0054 1.0000
vn 0.0006 -0.0054 1.0000
vn -0.0005 -0.0055 1.0000
vn -0.0002 -0.0054 1.0000
vn -0.0005 -0.0063 1.0000
vn -0.0003 -0.0076 1.0000
vn 0.0003 -0.0076 1.0000
vn 0.0006 -0.0061 1.0000
vn 0.0000 0.5863 0.8101
vn -0.2816 -0.0027 0.9595
vn 0.0000 -0.6200 0.7846
vn 0.2817 -0.0027 0.9595
vn 0.0046 -0.9803 -0.1975
vn 0.0020 -0.9731 -0.2303
# 26 vertex normals

vt 0.0494 0.5833 0.0000
vt 0.0502 0.8964 0.0000
vt 0.1703 0.8961 0.0000
vt 0.1696 0.5832 0.0000
vt 0.4600 0.5065 0.0000
vt 0.8032 0.5065 0.0000
vt 0.8032 0.8239 0.0000
vt 0.4600 0.8239 0.0000
vt 0.2639 0.4946 0.0000
vt 0.2576 0.4946 0.0000
vt 0.2588 0.9788 0.0000
vt 0.2650 0.9810 0.0000
vt 0.2384 0.4899 0.0000
vt 0.2309 0.4947 0.0000
vt 0.2321 0.9789 0.0000
vt 0.2396 0.9771 0.0000
vt 0.2122 0.4947 0.0000
vt 0.2134 0.9812 0.0000
vt 0.2169 0.9806 0.0000
vt 0.2157 0.4947 0.0000
vt 0.4600 0.3994 0.0000
vt 0.8032 0.3994 0.0000
vt 0.2853 0.9911 0.0000
vt 0.2841 0.4946 0.0000
vt 0.2192 0.4947 0.0000
vt 0.2204 0.9789 0.0000
vt 0.2459 0.4947 0.0000
vt 0.2471 0.9788 0.0000
vt 0.0356 0.5542 0.0000
vt 0.0125 0.4950 0.0000
vt 0.0137 0.9849 0.0000
vt 0.0364 0.9256 0.0000
vt 0.2072 0.9843 0.0000
vt 0.1842 0.9251 0.0000
vt 0.1833 0.5539 0.0000
vt 0.2061 0.4947 0.0000
vt 0.8032 0.9799 0.0000
vt 0.4600 0.9799 0.0000
# 38 texture coords

o ParedesSinVentana_003_Mesh_033
g ParedesSinVentana_003_Mesh_033
f 1/1/1 2/2/1 3/3/1 
f 3/3/1 4/4/1 1/1/1 
f 5/5/1 6/6/1 7/7/1 
f 7/7/1 8/8/1 5/5/1 
f 9/9/2 10/10/2 11/11/2 
f 11/11/2 12/12/2 9/9/2 
f 13/13/3 14/14/3 15/15/3 
f 15/15/3 16/16/3 13/13/3 
f 17/17/4 18/18/5 19/19/6 
f 19/19/6 20/20/7 17/17/4 
f 6/6/1 5/5/1 21/21/1 
f 21/21/1 22/22/1 6/6/1 
f 12/12/8 22/23/8 21/24/8 
f 21/24/8 9/9/8 12/12/8 
f 15/15/9 14/14/9 23/25/9 
f 23/25/9 24/26/9 15/15/9 
f 11/11/10 10/10/10 25/27/10 
f 25/27/10 26/28/10 11/11/10 
f 26/28/11 25/27/11 13/13/11 
f 13/13/11 16/16/11 26/28/11 
f 24/26/12 23/25/12 20/20/12 
f 20/20/12 19/19/12 24/26/12 
f 27/29/13 28/30/14 29/31/15 
f 29/31/15 30/32/16 27/29/13 
f 30/32/16 29/31/15 31/33/17 
f 31/33/17 32/34/18 30/32/16 
f 33/35/19 32/34/18 31/33/17 
f 31/33/17 34/36/20 33/35/19 
f 33/35/19 34/36/20 28/30/14 
f 28/30/14 27/29/13 33/35/19 
f 1/1/21 27/29/21 30/32/21 
f 30/32/21 2/2/21 1/1/21 
f 2/2/22 30/32/22 32/34/22 
f 32/34/22 3/3/22 2/2/22 
f 3/3/23 32/34/23 33/35/23 
f 33/35/23 4/4/23 3/3/23 
f 4/4/24 33/35/24 27/29/24 
f 27/29/24 1/1/24 4/4/24 
f 7/7/1 35/37/1 36/38/1 
f 36/38/1 8/8/1 7/7/1 
f 34/36/25 31/33/26 18/18/5 
f 18/18/5 17/17/4 34/36/25 
# 42 faces

