<svg xmlns="http://www.w3.org/2000/svg" width="1991" height="1991" viewBox="0 0 1991 1991" version="1.1"><path d="M 660.399 327.849 C 648.437 333.450, 640.666 349.385, 636.313 377.235 C 634.890 386.339, 634.565 394.638, 634.617 420.500 C 634.704 462.840, 636.838 495.575, 642.050 534.500 C 645.991 563.934, 650.084 592.587, 651.120 598 C 653.124 608.458, 665.098 660.548, 668.480 673.518 C 678.402 711.562, 702.304 766.256, 733.579 822.477 C 755.528 861.934, 782.838 906.098, 792.274 917.394 C 796.339 922.261, 796.351 922.297, 794.284 923.894 C 785.621 930.587, 782.927 933.019, 778.743 937.923 C 769.142 949.177, 762.385 965.162, 753.498 997.642 C 736.785 1058.724, 724.075 1091.201, 697.005 1142 C 671.532 1189.802, 663.614 1221.290, 666.956 1261.500 C 668.980 1285.849, 673.050 1301.803, 682.025 1320.564 C 696.096 1349.978, 716.680 1370.867, 745.500 1384.977 C 778.212 1400.992, 821.471 1416.793, 857.999 1426.068 C 871.153 1429.409, 910.279 1436.193, 929.500 1438.466 C 947.038 1440.541, 973.767 1441.971, 995 1441.971 C 1016.233 1441.971, 1042.962 1440.541, 1060.500 1438.466 C 1079.721 1436.193, 1118.847 1429.409, 1132.001 1426.068 C 1168.529 1416.793, 1211.788 1400.992, 1244.500 1384.977 C 1273.320 1370.867, 1293.904 1349.978, 1307.975 1320.564 C 1316.950 1301.803, 1321.020 1285.849, 1323.044 1261.500 C 1326.386 1221.290, 1318.468 1189.802, 1292.995 1142 C 1265.925 1091.201, 1253.215 1058.724, 1236.502 997.642 C 1227.615 965.162, 1220.858 949.177, 1211.257 937.923 C 1207.073 933.019, 1204.379 930.587, 1195.716 923.894 C 1193.649 922.297, 1193.661 922.261, 1197.726 917.394 C 1207.162 906.098, 1234.472 861.934, 1256.421 822.477 C 1287.696 766.256, 1311.598 711.562, 1321.520 673.518 C 1324.902 660.548, 1336.876 608.458, 1338.880 598 C 1339.916 592.587, 1344.009 563.934, 1347.950 534.500 C 1353.162 495.575, 1355.296 462.840, 1355.383 420.500 C 1355.435 394.638, 1355.110 386.339, 1353.687 377.235 C 1349.211 348.595, 1340.901 332.183, 1328.473 327.437 C 1325.119 326.156, 1321.960 325.861, 1315.282 326.205 C 1290.277 327.493, 1267.460 345.776, 1231.924 393 C 1197.332 438.970, 1153.827 514.298, 1125.210 577.775 C 1065.827 709.492, 1035.083 808.537, 1035.011 868.358 L 1035 877.217 1032.275 876.533 C 1022.686 874.126, 1016.163 873.616, 995 873.616 C 973.837 873.616, 967.314 874.126, 957.725 876.533 L 955 877.217 954.989 868.358 C 954.917 808.537, 924.173 709.492, 864.790 577.775 C 836.173 514.298, 792.668 438.970, 758.076 393 C 729.855 355.497, 711.323 337.949, 691.373 329.836 C 681.120 325.668, 666.993 324.761, 660.399 327.849 M 482.500 359.036 C 474.388 361.636, 457.169 370.484, 446.908 377.326 C 415.797 398.070, 372.455 441.948, 350.501 474.925 C 337.892 493.865, 328.114 515.623, 323.502 535 C 321.051 545.296, 320.492 564.094, 322.375 572.906 C 325.277 586.487, 331.695 597.630, 339.845 603.237 C 343.844 605.989, 345.132 606.332, 351.422 606.318 C 360.023 606.299, 370.585 602.404, 381.426 595.253 C 389.656 589.825, 410.563 569.268, 420.330 557 C 428.807 546.353, 448.240 517.622, 458.545 500.500 C 474.557 473.898, 491.622 436.162, 497.914 413.446 C 503.752 392.371, 505.511 370.220, 501.946 362.675 C 499.222 356.911, 492.850 355.718, 482.500 359.036 M 1491.942 358.472 C 1488.326 360.438, 1486.791 364.359, 1486.252 373 C 1485.259 388.925, 1490.809 413.660, 1501.162 439.446 C 1513.361 469.832, 1528.326 497.273, 1551.091 531 C 1566.435 553.735, 1573.711 562.771, 1588.969 578.044 C 1608.345 597.439, 1623.868 606.286, 1638.578 606.318 C 1644.868 606.332, 1646.156 605.989, 1650.155 603.237 C 1658.305 597.630, 1664.723 586.487, 1667.625 572.906 C 1669.508 564.094, 1668.949 545.296, 1666.498 535 C 1658.244 500.321, 1638.846 468.416, 1602.125 429.126 C 1575.162 400.277, 1548.200 378.584, 1524.092 366.341 C 1507.175 357.750, 1497.584 355.403, 1491.942 358.472 M 170.198 533.673 C 162.365 537.533, 158.604 553.134, 160.115 575.500 C 162.254 607.153, 171.214 645.853, 183.500 676.500 C 196.610 709.202, 211.038 731.257, 234.901 755.071 C 249.736 769.876, 258.012 775.743, 272.177 781.496 C 284.400 786.461, 295.250 787.743, 306.620 785.567 C 341.883 778.819, 378.462 760.359, 418.500 729.105 C 436.363 715.161, 455.831 698.004, 466.516 686.790 C 491.901 660.145, 506.651 630.007, 498.639 621.154 C 494.713 616.815, 475.584 615.533, 460.527 618.599 C 420.043 626.843, 367.047 662.415, 325.256 709.396 C 311.229 725.165, 298.316 741.955, 294.266 749.691 C 290.954 756.016, 290.727 755.656, 288.474 740.481 C 285.532 720.666, 278.359 698.127, 262.700 659.500 C 242.628 609.983, 231.055 587.646, 213.480 564.500 C 192.217 536.495, 180.870 528.414, 170.198 533.673 M 1805.193 534.591 C 1799.042 537.656, 1788.752 548.389, 1776.520 564.500 C 1758.945 587.646, 1747.372 609.983, 1727.300 659.500 C 1711.641 698.127, 1704.468 720.666, 1701.526 740.481 C 1699.273 755.656, 1699.046 756.016, 1695.734 749.691 C 1691.684 741.955, 1678.771 725.165, 1664.744 709.396 C 1622.953 662.415, 1569.957 626.843, 1529.473 618.599 C 1514.416 615.533, 1495.287 616.815, 1491.361 621.154 C 1483.349 630.007, 1498.099 660.145, 1523.484 686.790 C 1534.169 698.004, 1553.637 715.161, 1571.500 729.105 C 1611.710 760.493, 1648.564 779.047, 1683.737 785.611 C 1692.226 787.195, 1693.731 787.211, 1702.318 785.808 C 1713.040 784.056, 1725.959 778.784, 1736.010 772.058 C 1744.822 766.161, 1767.057 743.686, 1775.886 731.751 C 1789.590 713.224, 1797.501 698.948, 1806.500 676.500 C 1825.029 630.279, 1835.289 566.673, 1827.651 545.364 C 1825.024 538.034, 1823.161 535.304, 1819.643 533.635 C 1814.828 531.350, 1811.217 531.589, 1805.193 534.591 M 89.333 777.432 C 85.249 780.382, 83.631 786.962, 84.328 797.784 C 86.258 827.742, 105.241 869.259, 132.436 903 C 161.793 939.424, 205.682 969.582, 241 977.599 C 253.756 980.494, 257.130 980.549, 269.140 978.060 C 285.986 974.567, 291.586 971.862, 316.534 955.166 C 340.167 939.349, 348.685 932.464, 365.518 915.569 C 396.579 884.395, 423.632 844.453, 428.048 823.250 C 428.929 819.023, 428.842 816.968, 427.602 812.704 C 424.164 800.875, 414.438 798.104, 396.936 803.968 C 371.904 812.354, 340.950 833.200, 314.477 859.500 C 293.539 880.301, 281.056 898.383, 263.035 934.019 C 253.456 952.962, 250 958.236, 250 953.911 C 250 953.377, 247.451 948.791, 244.337 943.720 C 241.222 938.649, 233.435 925.725, 227.032 915 C 206.142 880.005, 196.061 864.966, 179.248 843.713 C 153.290 810.900, 131.074 789.895, 112.187 780.309 C 103.503 775.901, 93.241 774.609, 89.333 777.432 M 1882 778.312 C 1862.830 786.204, 1838.787 808.274, 1810.752 843.713 C 1793.939 864.966, 1783.858 880.005, 1762.968 915 C 1756.565 925.725, 1748.778 938.649, 1745.663 943.720 C 1742.549 948.791, 1740 953.377, 1740 953.911 C 1740 958.236, 1736.544 952.962, 1726.965 934.019 C 1708.944 898.383, 1696.461 880.301, 1675.523 859.500 C 1637.785 822.010, 1589.262 795.267, 1571.315 802.067 C 1563.996 804.840, 1560 813.880, 1561.952 823.250 C 1566.368 844.453, 1593.421 884.395, 1624.482 915.569 C 1641.315 932.464, 1649.833 939.349, 1673.466 955.166 C 1698.414 971.862, 1704.014 974.567, 1720.860 978.060 C 1732.870 980.549, 1736.244 980.494, 1749 977.599 C 1784.318 969.582, 1828.207 939.424, 1857.564 903 C 1884.759 869.259, 1903.742 827.742, 1905.672 797.784 C 1906.369 786.972, 1904.739 780.332, 1900.694 777.498 C 1897.481 775.247, 1888.493 775.639, 1882 778.312 M 391.500 979.213 C 383.342 982.084, 367.106 996.937, 354.033 1013.490 C 324.906 1050.370, 292.854 1115.760, 279.381 1165.788 C 279.190 1166.496, 273.070 1160.932, 265.780 1153.424 C 238.827 1125.663, 183.490 1080.221, 147 1055.882 C 131.656 1045.648, 110.778 1034.933, 101.794 1032.681 C 79.654 1027.131, 72.293 1036.155, 80.057 1059.330 C 86.738 1079.272, 101.696 1101.716, 124.036 1125.321 C 154.212 1157.207, 194.707 1180.473, 232.500 1187.639 C 243.261 1189.679, 274.372 1190.054, 283.207 1188.249 C 290.664 1186.726, 302.614 1181.078, 311.772 1174.747 C 345.413 1151.491, 396.048 1067.482, 406.550 1017.500 C 408.930 1006.174, 408.983 992.751, 406.671 986.761 C 403.648 978.924, 398.956 976.590, 391.500 979.213 M 1587.713 980.011 C 1581.575 984.839, 1579.823 1000.241, 1583.450 1017.500 C 1592.011 1058.241, 1628.909 1125.519, 1661.481 1159.775 C 1675.598 1174.622, 1692.706 1185.372, 1706.793 1188.249 C 1715.628 1190.054, 1746.739 1189.679, 1757.500 1187.639 C 1795.293 1180.473, 1835.788 1157.207, 1865.964 1125.321 C 1888.304 1101.716, 1903.262 1079.272, 1909.943 1059.330 C 1917.707 1036.155, 1910.346 1027.131, 1888.206 1032.681 C 1879.222 1034.933, 1858.344 1045.648, 1843 1055.882 C 1806.510 1080.221, 1751.173 1125.663, 1724.220 1153.424 C 1716.930 1160.932, 1710.810 1166.496, 1710.619 1165.788 C 1701.435 1131.686, 1680.891 1084.052, 1660.679 1050 C 1635.990 1008.403, 1607.194 978, 1592.486 978 C 1591.267 978, 1589.119 978.905, 1587.713 980.011 M 868.224 999.017 C 839.035 1006.664, 827.581 1022.279, 815.016 1071.554 C 807.449 1101.225, 807.303 1116.134, 814.436 1130.567 C 818.684 1139.163, 824.713 1145.025, 834.705 1150.276 C 849.185 1157.885, 866.141 1161.548, 883.626 1160.846 C 892.930 1160.472, 894.345 1160.135, 901.612 1156.554 C 911.455 1151.705, 920.347 1143.096, 928.782 1130.251 C 935.929 1119.367, 939.629 1110.226, 944.030 1092.582 C 947.114 1080.219, 947.222 1079.125, 946.547 1067.082 C 944.848 1036.751, 938.412 1018.847, 925.589 1008.783 C 919.475 1003.983, 909.572 999.753, 900.566 998.094 C 891.409 996.406, 876.571 996.829, 868.224 999.017 M 1087.904 998.372 C 1058.100 1004.787, 1045.884 1023.670, 1043.453 1067.082 C 1042.778 1079.125, 1042.886 1080.219, 1045.970 1092.582 C 1050.371 1110.226, 1054.071 1119.367, 1061.218 1130.251 C 1069.653 1143.096, 1078.545 1151.705, 1088.388 1156.554 C 1095.655 1160.135, 1097.070 1160.472, 1106.374 1160.846 C 1123.859 1161.548, 1140.815 1157.885, 1155.295 1150.276 C 1175.039 1139.901, 1183.109 1122.821, 1180.206 1097.553 C 1179.015 1087.191, 1172.849 1061.371, 1168.386 1048.054 C 1162.602 1030.800, 1154.371 1017.012, 1145.808 1010.236 C 1131.980 999.293, 1107.206 994.217, 1087.904 998.372 M 452.500 1140.770 C 436.645 1146.383, 412.774 1170.491, 394.308 1199.542 C 381.583 1219.560, 374.529 1235.163, 365.888 1262.400 C 354.715 1297.622, 350.116 1317.550, 349.771 1332.250 C 349.709 1334.862, 349.236 1337, 348.720 1337 C 348.203 1337, 345.242 1334.679, 342.140 1331.842 C 333.921 1324.325, 303.875 1302.056, 283.279 1288.215 C 234.134 1255.190, 197.688 1237.427, 168.724 1232.385 C 153.212 1229.685, 139.562 1232.160, 135.462 1238.418 C 129.151 1248.050, 143.267 1272.381, 171.479 1300.500 C 190.401 1319.359, 207.525 1331.846, 229.507 1342.816 C 260.451 1358.258, 287.802 1363.511, 325.707 1361.294 C 353.777 1359.652, 361.187 1356.764, 380.632 1339.885 C 391.006 1330.881, 406.713 1313.530, 417.715 1298.924 C 446.075 1261.270, 472.159 1198.361, 473.656 1164 C 474.120 1153.363, 473.983 1152.167, 471.829 1148.059 C 467.638 1140.066, 461.271 1137.665, 452.500 1140.770 M 1526.619 1140.003 C 1512.878 1144.267, 1512.497 1167.545, 1525.530 1206.529 C 1537.209 1241.461, 1554.007 1274.657, 1572.285 1298.924 C 1583.287 1313.530, 1598.994 1330.881, 1609.368 1339.885 C 1628.813 1356.764, 1636.223 1359.652, 1664.293 1361.294 C 1702.198 1363.511, 1729.549 1358.258, 1760.493 1342.816 C 1782.475 1331.846, 1799.599 1319.359, 1818.521 1300.500 C 1840.649 1278.445, 1854.840 1257.803, 1855.807 1246.262 C 1856.359 1239.675, 1854.488 1236.546, 1848.384 1233.846 C 1828.778 1225.173, 1789.324 1237.494, 1737.543 1268.461 C 1710.500 1284.634, 1662.002 1318.908, 1647.860 1331.842 C 1644.758 1334.679, 1641.797 1337, 1641.280 1337 C 1640.764 1337, 1640.291 1334.862, 1640.229 1332.250 C 1640.030 1323.767, 1637.009 1306.373, 1633.551 1293.795 C 1628.249 1274.508, 1618.404 1244.123, 1614.469 1234.900 C 1592.282 1182.892, 1546.786 1133.747, 1526.619 1140.003 M 980.500 1188.109 C 966.913 1189.746, 955.946 1196.824, 950.588 1207.413 C 948.079 1212.373, 947.793 1213.833, 948.240 1219.405 C 949.179 1231.102, 957.767 1243.369, 971.007 1251.926 C 974.440 1254.145, 978.768 1256.510, 980.625 1257.181 C 982.618 1257.902, 984 1259.083, 984 1260.067 C 984 1263.599, 976.851 1275.883, 972.415 1279.972 C 959.483 1291.892, 942.888 1292.601, 927.828 1281.877 C 923.366 1278.700, 917.507 1269.052, 915.470 1261.529 C 913.896 1255.712, 913.432 1255, 911.214 1255 C 908.774 1255, 908.738 1255.114, 909.383 1260.750 C 910.280 1268.586, 913.659 1278.516, 917.397 1284.305 C 929.261 1302.678, 968.284 1306.239, 985.743 1290.541 C 988.405 1288.148, 991.454 1284.572, 992.519 1282.595 C 993.584 1280.618, 994.700 1279, 995 1279 C 995.300 1279, 996.416 1280.618, 997.481 1282.595 C 998.546 1284.572, 1001.595 1288.148, 1004.257 1290.541 C 1021.716 1306.239, 1060.739 1302.678, 1072.603 1284.305 C 1076.341 1278.516, 1079.720 1268.586, 1080.617 1260.750 C 1081.262 1255.114, 1081.226 1255, 1078.786 1255 C 1076.568 1255, 1076.104 1255.712, 1074.530 1261.529 C 1072.493 1269.052, 1066.634 1278.700, 1062.172 1281.877 C 1047.112 1292.601, 1030.517 1291.892, 1017.585 1279.972 C 1013.149 1275.883, 1006 1263.599, 1006 1260.067 C 1006 1259.083, 1007.382 1257.902, 1009.375 1257.181 C 1014.715 1255.250, 1024.812 1248.326, 1029.889 1243.114 C 1032.448 1240.487, 1036.101 1235.449, 1038.008 1231.919 C 1041.078 1226.233, 1041.476 1224.643, 1041.487 1218 C 1041.499 1211.359, 1041.147 1209.927, 1038.419 1205.500 C 1034.032 1198.379, 1026.429 1192.522, 1018.326 1190.019 C 1010.969 1187.747, 991.615 1186.769, 980.500 1188.109 M 531.349 1274.750 C 518.058 1282.205, 497.393 1311.246, 486.140 1338.285 C 477.433 1359.206, 471.795 1380.389, 468.384 1405 C 465.058 1428.991, 466.210 1471.760, 470.699 1491 L 471.282 1493.500 468.891 1491.343 C 465.059 1487.885, 402.007 1457.408, 373.162 1445.069 C 330.193 1426.690, 289.943 1417.997, 254 1419.332 C 218.314 1420.659, 203.380 1429.760, 211.014 1445.530 C 216.808 1457.497, 247.512 1483.174, 268.951 1493.980 C 288.149 1503.657, 325.843 1515.389, 355.500 1520.920 C 389.602 1527.279, 416.145 1527.559, 444.934 1521.864 C 463.572 1518.177, 475.604 1513.377, 489.197 1504.204 C 498.014 1498.255, 501.278 1494.697, 509.666 1481.895 C 525.047 1458.420, 539 1422.719, 545.947 1389.063 C 554.874 1345.818, 555.097 1291.761, 546.404 1278.494 C 542.957 1273.232, 536.789 1271.699, 531.349 1274.750 M 1448.374 1273.985 C 1437.298 1278.458, 1433.837 1320.103, 1440.512 1368.563 C 1446.137 1409.391, 1461.526 1453.190, 1480.334 1481.895 C 1488.722 1494.697, 1491.986 1498.255, 1500.803 1504.204 C 1514.396 1513.377, 1526.428 1518.177, 1545.066 1521.864 C 1573.855 1527.559, 1600.398 1527.279, 1634.500 1520.920 C 1664.157 1515.389, 1701.851 1503.657, 1721.049 1493.980 C 1742.488 1483.174, 1773.192 1457.497, 1778.986 1445.530 C 1786.620 1429.760, 1771.686 1420.659, 1736 1419.332 C 1700.057 1417.997, 1659.807 1426.690, 1616.838 1445.069 C 1587.993 1457.408, 1524.941 1487.885, 1521.109 1491.343 L 1518.718 1493.500 1519.301 1491 C 1523.790 1471.760, 1524.942 1428.991, 1521.616 1405 C 1514.565 1354.130, 1495.579 1310.581, 1468.346 1282.814 C 1459.494 1273.788, 1454.419 1271.544, 1448.374 1273.985 M 614.932 1393.828 C 599.330 1403.722, 583.288 1433.563, 577.008 1464.369 C 571.950 1489.184, 569.748 1523.812, 571.939 1544.098 C 574.087 1563.995, 580.220 1589.574, 585.185 1599.347 C 586.260 1601.463, 586.926 1603.408, 586.665 1603.669 C 586.403 1603.930, 584.069 1603.424, 581.477 1602.544 C 576.028 1600.694, 532.788 1592.701, 519.500 1591.087 C 503.548 1589.150, 486.029 1588.001, 462.500 1587.350 C 443.576 1586.826, 437.196 1587.022, 426.500 1588.459 C 395.643 1592.605, 365.781 1603.592, 354.090 1615.100 C 347.955 1621.139, 342.809 1631.254, 342.213 1638.446 C 341.801 1643.416, 342.001 1643.995, 345.452 1647.815 C 355.960 1659.446, 373.657 1664.135, 418.141 1667.076 C 447.276 1669.001, 470.561 1667.958, 496 1663.587 C 548.801 1654.514, 571.508 1647.604, 595.317 1633.366 C 612.322 1623.196, 616.779 1616.163, 629.131 1580 C 638.605 1552.262, 642.805 1527.389, 645.039 1485.786 C 646.527 1458.076, 644.145 1425.563, 639.414 1409 C 634.765 1392.725, 625.613 1387.054, 614.932 1393.828 M 1359.738 1393.124 C 1351.559 1399.225, 1347.255 1415.871, 1344.957 1450.286 C 1342.833 1482.090, 1347.232 1530.451, 1355.027 1561 C 1359.055 1576.786, 1368.215 1601.748, 1374.211 1613.282 C 1380.049 1624.513, 1388.842 1631.399, 1410.183 1641.452 C 1430.031 1650.803, 1449.458 1655.933, 1494 1663.587 C 1519.439 1667.958, 1542.724 1669.001, 1571.859 1667.076 C 1616.343 1664.135, 1634.040 1659.446, 1644.548 1647.815 C 1647.999 1643.995, 1648.199 1643.416, 1647.787 1638.446 C 1647.191 1631.254, 1642.045 1621.139, 1635.910 1615.100 C 1624.219 1603.592, 1594.357 1592.605, 1563.500 1588.459 C 1552.804 1587.022, 1546.424 1586.826, 1527.500 1587.350 C 1503.971 1588.001, 1486.452 1589.150, 1470.500 1591.087 C 1457.212 1592.701, 1413.972 1600.694, 1408.523 1602.544 C 1405.931 1603.424, 1403.597 1603.930, 1403.335 1603.669 C 1403.074 1603.408, 1403.740 1601.463, 1404.815 1599.347 C 1409.780 1589.574, 1415.913 1563.995, 1418.061 1544.098 C 1420.252 1523.812, 1418.050 1489.184, 1412.992 1464.369 C 1407.879 1439.287, 1397.578 1417.068, 1383.880 1401.578 C 1375.077 1391.623, 1366.007 1388.447, 1359.738 1393.124 M 744.209 1476.954 C 738.288 1478.412, 734.308 1482.759, 729.063 1493.500 C 724.505 1502.835, 720.558 1518.174, 718.906 1532.971 C 717.182 1548.418, 718.270 1585.249, 720.901 1600.500 C 727.293 1637.547, 739.433 1669.389, 754.916 1689.711 C 758.776 1694.778, 761.596 1699.132, 761.182 1699.387 C 760.769 1699.643, 755.271 1699.387, 748.965 1698.818 C 736.360 1697.682, 688.932 1698.355, 662 1700.052 C 634.339 1701.795, 610.680 1704.849, 585 1709.993 C 536.693 1719.670, 511.410 1727.788, 501.500 1736.805 C 495.549 1742.220, 494 1744.978, 494 1750.157 C 494 1754.484, 494.467 1755.552, 498.074 1759.465 C 505.573 1767.600, 529.629 1777.554, 553.813 1782.529 C 572.432 1786.358, 587.123 1788.041, 607.500 1788.679 C 643.960 1789.820, 666.999 1784.885, 706.700 1767.430 C 733.493 1755.650, 757.289 1739.935, 774.578 1722.601 C 782.553 1714.605, 783.971 1712.637, 786.254 1706.390 C 789.860 1696.528, 793.663 1676.956, 795.083 1660.959 C 797.138 1637.817, 795.107 1600.214, 789.471 1557 C 785.084 1523.366, 775.680 1494.691, 765.791 1484.795 C 759.248 1478.246, 751.054 1475.269, 744.209 1476.954 M 1235.698 1477.421 C 1223.545 1481.830, 1216.346 1491.973, 1209.630 1514.151 C 1203.507 1534.371, 1201.122 1548.355, 1196.951 1588.500 C 1191.750 1638.568, 1194.145 1680.130, 1203.746 1706.390 C 1206.029 1712.637, 1207.447 1714.605, 1215.422 1722.601 C 1232.711 1739.935, 1256.507 1755.650, 1283.300 1767.430 C 1323.001 1784.885, 1346.040 1789.820, 1382.500 1788.679 C 1402.877 1788.041, 1417.568 1786.358, 1436.187 1782.529 C 1460.371 1777.554, 1484.427 1767.600, 1491.926 1759.465 C 1495.533 1755.552, 1496 1754.484, 1496 1750.157 C 1496 1744.978, 1494.451 1742.220, 1488.500 1736.805 C 1472.240 1722.010, 1394.702 1704.255, 1328 1700.052 C 1301.068 1698.355, 1253.640 1697.682, 1241.035 1698.818 C 1234.729 1699.387, 1229.231 1699.643, 1228.818 1699.387 C 1228.404 1699.132, 1231.224 1694.778, 1235.084 1689.711 C 1250.567 1669.389, 1262.707 1637.547, 1269.099 1600.500 C 1271.730 1585.249, 1272.818 1548.418, 1271.094 1532.971 C 1268.153 1506.626, 1259.589 1484.853, 1249.701 1478.587 C 1246.261 1476.407, 1239.943 1475.881, 1235.698 1477.421 M 981.906 1606.966 C 953.968 1610.518, 927.677 1625.678, 910.778 1647.980 C 903.896 1657.062, 896.441 1672.658, 893.319 1684.500 C 890.998 1693.306, 890.684 1696.410, 890.684 1710.500 C 890.684 1724.651, 890.991 1727.653, 893.342 1736.477 C 904.727 1779.211, 939.989 1809.213, 984.750 1814.251 C 1019.896 1818.207, 1057.219 1801.921, 1079.074 1773.093 C 1086.086 1763.843, 1093.577 1748.275, 1096.681 1736.500 C 1099.002 1727.694, 1099.316 1724.590, 1099.316 1710.500 C 1099.316 1696.410, 1099.002 1693.306, 1096.681 1684.500 C 1093.554 1672.638, 1086.101 1657.059, 1079.189 1647.937 C 1072.240 1638.766, 1059.666 1627.390, 1050.088 1621.608 C 1040.857 1616.036, 1027.335 1610.674, 1017.062 1608.513 C 1008.210 1606.651, 990.510 1605.872, 981.906 1606.966" stroke="none" fill="#fafbfb" fill-rule="evenodd"/><path d="M 467.500 1.047 C 322.330 9.374, 186.530 82.102, 98.809 198.500 C 48.108 265.775, 14.471 346.615, 3.418 427.750 C 2.425 435.037, 1.250 441, 0.806 441 C 0.363 441, 0 690.075, 0 994.500 C 0 1298.925, 0.361 1548, 0.803 1548 C 1.244 1548, 2.176 1552.612, 2.873 1558.250 C 6.253 1585.582, 14.580 1621.727, 24.010 1650 C 60.673 1759.923, 134.670 1853.749, 233.311 1915.389 C 300.265 1957.228, 374.949 1981.873, 457 1989.204 C 478.362 1991.113, 1509.192 1991.112, 1532 1989.203 C 1618.987 1981.923, 1697.435 1955.098, 1768 1908.503 C 1831.984 1866.254, 1882.402 1813.548, 1922.331 1747.169 C 1958.502 1687.038, 1982.867 1613.737, 1989.698 1544.500 L 1990.488 1536.500 1991.081 1542 C 1991.407 1545.025, 1991.659 1298.200, 1991.641 993.500 C 1991.623 688.800, 1991.419 442.650, 1991.188 446.500 C 1990.791 453.117, 1990.636 452.488, 1988.363 435 C 1978.588 359.831, 1952.662 289.473, 1911.534 226.500 C 1856.501 142.237, 1778.162 77.133, 1685.147 38.362 C 1630.967 15.779, 1576.914 3.897, 1515.241 1.014 C 1490.772 -0.130, 487.466 -0.099, 467.500 1.047 M 660.399 327.849 C 648.437 333.450, 640.666 349.385, 636.313 377.235 C 634.890 386.339, 634.565 394.638, 634.617 420.500 C 634.704 462.840, 636.838 495.575, 642.050 534.500 C 645.991 563.934, 650.084 592.587, 651.120 598 C 653.124 608.458, 665.098 660.548, 668.480 673.518 C 678.402 711.562, 702.304 766.256, 733.579 822.477 C 755.528 861.934, 782.838 906.098, 792.274 917.394 C 796.339 922.261, 796.351 922.297, 794.284 923.894 C 785.621 930.587, 782.927 933.019, 778.743 937.923 C 769.142 949.177, 762.385 965.162, 753.498 997.642 C 736.785 1058.724, 724.075 1091.201, 697.005 1142 C 671.532 1189.802, 663.614 1221.290, 666.956 1261.500 C 668.980 1285.849, 673.050 1301.803, 682.025 1320.564 C 696.096 1349.978, 716.680 1370.867, 745.500 1384.977 C 778.212 1400.992, 821.471 1416.793, 857.999 1426.068 C 871.153 1429.409, 910.279 1436.193, 929.500 1438.466 C 947.038 1440.541, 973.767 1441.971, 995 1441.971 C 1016.233 1441.971, 1042.962 1440.541, 1060.500 1438.466 C 1079.721 1436.193, 1118.847 1429.409, 1132.001 1426.068 C 1168.529 1416.793, 1211.788 1400.992, 1244.500 1384.977 C 1273.320 1370.867, 1293.904 1349.978, 1307.975 1320.564 C 1316.950 1301.803, 1321.020 1285.849, 1323.044 1261.500 C 1326.386 1221.290, 1318.468 1189.802, 1292.995 1142 C 1265.925 1091.201, 1253.215 1058.724, 1236.502 997.642 C 1227.615 965.162, 1220.858 949.177, 1211.257 937.923 C 1207.073 933.019, 1204.379 930.587, 1195.716 923.894 C 1193.649 922.297, 1193.661 922.261, 1197.726 917.394 C 1207.162 906.098, 1234.472 861.934, 1256.421 822.477 C 1287.696 766.256, 1311.598 711.562, 1321.520 673.518 C 1324.902 660.548, 1336.876 608.458, 1338.880 598 C 1339.916 592.587, 1344.009 563.934, 1347.950 534.500 C 1353.162 495.575, 1355.296 462.840, 1355.383 420.500 C 1355.435 394.638, 1355.110 386.339, 1353.687 377.235 C 1349.211 348.595, 1340.901 332.183, 1328.473 327.437 C 1325.119 326.156, 1321.960 325.861, 1315.282 326.205 C 1290.277 327.493, 1267.460 345.776, 1231.924 393 C 1197.332 438.970, 1153.827 514.298, 1125.210 577.775 C 1065.827 709.492, 1035.083 808.537, 1035.011 868.358 L 1035 877.217 1032.275 876.533 C 1022.686 874.126, 1016.163 873.616, 995 873.616 C 973.837 873.616, 967.314 874.126, 957.725 876.533 L 955 877.217 954.989 868.358 C 954.917 808.537, 924.173 709.492, 864.790 577.775 C 836.173 514.298, 792.668 438.970, 758.076 393 C 729.855 355.497, 711.323 337.949, 691.373 329.836 C 681.120 325.668, 666.993 324.761, 660.399 327.849 M 482.500 359.036 C 474.388 361.636, 457.169 370.484, 446.908 377.326 C 415.797 398.070, 372.455 441.948, 350.501 474.925 C 337.892 493.865, 328.114 515.623, 323.502 535 C 321.051 545.296, 320.492 564.094, 322.375 572.906 C 325.277 586.487, 331.695 597.630, 339.845 603.237 C 343.844 605.989, 345.132 606.332, 351.422 606.318 C 360.023 606.299, 370.585 602.404, 381.426 595.253 C 389.656 589.825, 410.563 569.268, 420.330 557 C 428.807 546.353, 448.240 517.622, 458.545 500.500 C 474.557 473.898, 491.622 436.162, 497.914 413.446 C 503.752 392.371, 505.511 370.220, 501.946 362.675 C 499.222 356.911, 492.850 355.718, 482.500 359.036 M 1491.942 358.472 C 1488.326 360.438, 1486.791 364.359, 1486.252 373 C 1485.259 388.925, 1490.809 413.660, 1501.162 439.446 C 1513.361 469.832, 1528.326 497.273, 1551.091 531 C 1566.435 553.735, 1573.711 562.771, 1588.969 578.044 C 1608.345 597.439, 1623.868 606.286, 1638.578 606.318 C 1644.868 606.332, 1646.156 605.989, 1650.155 603.237 C 1658.305 597.630, 1664.723 586.487, 1667.625 572.906 C 1669.508 564.094, 1668.949 545.296, 1666.498 535 C 1658.244 500.321, 1638.846 468.416, 1602.125 429.126 C 1575.162 400.277, 1548.200 378.584, 1524.092 366.341 C 1507.175 357.750, 1497.584 355.403, 1491.942 358.472 M 0.496 994.500 C 0.496 1299.200, 0.611 1423.701, 0.750 1271.168 C 0.889 1118.635, 0.889 869.335, 0.750 717.168 C 0.611 565.001, 0.496 689.800, 0.496 994.500 M 170.198 533.673 C 162.365 537.533, 158.604 553.134, 160.115 575.500 C 162.254 607.153, 171.214 645.853, 183.500 676.500 C 196.610 709.202, 211.038 731.257, 234.901 755.071 C 249.736 769.876, 258.012 775.743, 272.177 781.496 C 284.400 786.461, 295.250 787.743, 306.620 785.567 C 341.883 778.819, 378.462 760.359, 418.500 729.105 C 436.363 715.161, 455.831 698.004, 466.516 686.790 C 491.901 660.145, 506.651 630.007, 498.639 621.154 C 494.713 616.815, 475.584 615.533, 460.527 618.599 C 420.043 626.843, 367.047 662.415, 325.256 709.396 C 311.229 725.165, 298.316 741.955, 294.266 749.691 C 290.954 756.016, 290.727 755.656, 288.474 740.481 C 285.532 720.666, 278.359 698.127, 262.700 659.500 C 242.628 609.983, 231.055 587.646, 213.480 564.500 C 192.217 536.495, 180.870 528.414, 170.198 533.673 M 1805.193 534.591 C 1799.042 537.656, 1788.752 548.389, 1776.520 564.500 C 1758.945 587.646, 1747.372 609.983, 1727.300 659.500 C 1711.641 698.127, 1704.468 720.666, 1701.526 740.481 C 1699.273 755.656, 1699.046 756.016, 1695.734 749.691 C 1691.684 741.955, 1678.771 725.165, 1664.744 709.396 C 1622.953 662.415, 1569.957 626.843, 1529.473 618.599 C 1514.416 615.533, 1495.287 616.815, 1491.361 621.154 C 1483.349 630.007, 1498.099 660.145, 1523.484 686.790 C 1534.169 698.004, 1553.637 715.161, 1571.500 729.105 C 1611.710 760.493, 1648.564 779.047, 1683.737 785.611 C 1692.226 787.195, 1693.731 787.211, 1702.318 785.808 C 1713.040 784.056, 1725.959 778.784, 1736.010 772.058 C 1744.822 766.161, 1767.057 743.686, 1775.886 731.751 C 1789.590 713.224, 1797.501 698.948, 1806.500 676.500 C 1825.029 630.279, 1835.289 566.673, 1827.651 545.364 C 1825.024 538.034, 1823.161 535.304, 1819.643 533.635 C 1814.828 531.350, 1811.217 531.589, 1805.193 534.591 M 89.333 777.432 C 85.249 780.382, 83.631 786.962, 84.328 797.784 C 86.258 827.742, 105.241 869.259, 132.436 903 C 161.793 939.424, 205.682 969.582, 241 977.599 C 253.756 980.494, 257.130 980.549, 269.140 978.060 C 285.986 974.567, 291.586 971.862, 316.534 955.166 C 340.167 939.349, 348.685 932.464, 365.518 915.569 C 396.579 884.395, 423.632 844.453, 428.048 823.250 C 428.929 819.023, 428.842 816.968, 427.602 812.704 C 424.164 800.875, 414.438 798.104, 396.936 803.968 C 371.904 812.354, 340.950 833.200, 314.477 859.500 C 293.539 880.301, 281.056 898.383, 263.035 934.019 C 253.456 952.962, 250 958.236, 250 953.911 C 250 953.377, 247.451 948.791, 244.337 943.720 C 241.222 938.649, 233.435 925.725, 227.032 915 C 206.142 880.005, 196.061 864.966, 179.248 843.713 C 153.290 810.900, 131.074 789.895, 112.187 780.309 C 103.503 775.901, 93.241 774.609, 89.333 777.432 M 1882 778.312 C 1862.830 786.204, 1838.787 808.274, 1810.752 843.713 C 1793.939 864.966, 1783.858 880.005, 1762.968 915 C 1756.565 925.725, 1748.778 938.649, 1745.663 943.720 C 1742.549 948.791, 1740 953.377, 1740 953.911 C 1740 958.236, 1736.544 952.962, 1726.965 934.019 C 1708.944 898.383, 1696.461 880.301, 1675.523 859.500 C 1637.785 822.010, 1589.262 795.267, 1571.315 802.067 C 1563.996 804.840, 1560 813.880, 1561.952 823.250 C 1566.368 844.453, 1593.421 884.395, 1624.482 915.569 C 1641.315 932.464, 1649.833 939.349, 1673.466 955.166 C 1698.414 971.862, 1704.014 974.567, 1720.860 978.060 C 1732.870 980.549, 1736.244 980.494, 1749 977.599 C 1784.318 969.582, 1828.207 939.424, 1857.564 903 C 1884.759 869.259, 1903.742 827.742, 1905.672 797.784 C 1906.369 786.972, 1904.739 780.332, 1900.694 777.498 C 1897.481 775.247, 1888.493 775.639, 1882 778.312 M 391.500 979.213 C 383.342 982.084, 367.106 996.937, 354.033 1013.490 C 324.906 1050.370, 292.854 1115.760, 279.381 1165.788 C 279.190 1166.496, 273.070 1160.932, 265.780 1153.424 C 238.827 1125.663, 183.490 1080.221, 147 1055.882 C 131.656 1045.648, 110.778 1034.933, 101.794 1032.681 C 79.654 1027.131, 72.293 1036.155, 80.057 1059.330 C 86.738 1079.272, 101.696 1101.716, 124.036 1125.321 C 154.212 1157.207, 194.707 1180.473, 232.500 1187.639 C 243.261 1189.679, 274.372 1190.054, 283.207 1188.249 C 290.664 1186.726, 302.614 1181.078, 311.772 1174.747 C 345.413 1151.491, 396.048 1067.482, 406.550 1017.500 C 408.930 1006.174, 408.983 992.751, 406.671 986.761 C 403.648 978.924, 398.956 976.590, 391.500 979.213 M 1587.713 980.011 C 1581.575 984.839, 1579.823 1000.241, 1583.450 1017.500 C 1592.011 1058.241, 1628.909 1125.519, 1661.481 1159.775 C 1675.598 1174.622, 1692.706 1185.372, 1706.793 1188.249 C 1715.628 1190.054, 1746.739 1189.679, 1757.500 1187.639 C 1795.293 1180.473, 1835.788 1157.207, 1865.964 1125.321 C 1888.304 1101.716, 1903.262 1079.272, 1909.943 1059.330 C 1917.707 1036.155, 1910.346 1027.131, 1888.206 1032.681 C 1879.222 1034.933, 1858.344 1045.648, 1843 1055.882 C 1806.510 1080.221, 1751.173 1125.663, 1724.220 1153.424 C 1716.930 1160.932, 1710.810 1166.496, 1710.619 1165.788 C 1701.435 1131.686, 1680.891 1084.052, 1660.679 1050 C 1635.990 1008.403, 1607.194 978, 1592.486 978 C 1591.267 978, 1589.119 978.905, 1587.713 980.011 M 868.224 999.017 C 839.035 1006.664, 827.581 1022.279, 815.016 1071.554 C 807.449 1101.225, 807.303 1116.134, 814.436 1130.567 C 818.684 1139.163, 824.713 1145.025, 834.705 1150.276 C 849.185 1157.885, 866.141 1161.548, 883.626 1160.846 C 892.930 1160.472, 894.345 1160.135, 901.612 1156.554 C 911.455 1151.705, 920.347 1143.096, 928.782 1130.251 C 935.929 1119.367, 939.629 1110.226, 944.030 1092.582 C 947.114 1080.219, 947.222 1079.125, 946.547 1067.082 C 944.848 1036.751, 938.412 1018.847, 925.589 1008.783 C 919.475 1003.983, 909.572 999.753, 900.566 998.094 C 891.409 996.406, 876.571 996.829, 868.224 999.017 M 1087.904 998.372 C 1058.100 1004.787, 1045.884 1023.670, 1043.453 1067.082 C 1042.778 1079.125, 1042.886 1080.219, 1045.970 1092.582 C 1050.371 1110.226, 1054.071 1119.367, 1061.218 1130.251 C 1069.653 1143.096, 1078.545 1151.705, 1088.388 1156.554 C 1095.655 1160.135, 1097.070 1160.472, 1106.374 1160.846 C 1123.859 1161.548, 1140.815 1157.885, 1155.295 1150.276 C 1175.039 1139.901, 1183.109 1122.821, 1180.206 1097.553 C 1179.015 1087.191, 1172.849 1061.371, 1168.386 1048.054 C 1162.602 1030.800, 1154.371 1017.012, 1145.808 1010.236 C 1131.980 999.293, 1107.206 994.217, 1087.904 998.372 M 452.500 1140.770 C 436.645 1146.383, 412.774 1170.491, 394.308 1199.542 C 381.583 1219.560, 374.529 1235.163, 365.888 1262.400 C 354.715 1297.622, 350.116 1317.550, 349.771 1332.250 C 349.709 1334.862, 349.236 1337, 348.720 1337 C 348.203 1337, 345.242 1334.679, 342.140 1331.842 C 333.921 1324.325, 303.875 1302.056, 283.279 1288.215 C 234.134 1255.190, 197.688 1237.427, 168.724 1232.385 C 153.212 1229.685, 139.562 1232.160, 135.462 1238.418 C 129.151 1248.050, 143.267 1272.381, 171.479 1300.500 C 190.401 1319.359, 207.525 1331.846, 229.507 1342.816 C 260.451 1358.258, 287.802 1363.511, 325.707 1361.294 C 353.777 1359.652, 361.187 1356.764, 380.632 1339.885 C 391.006 1330.881, 406.713 1313.530, 417.715 1298.924 C 446.075 1261.270, 472.159 1198.361, 473.656 1164 C 474.120 1153.363, 473.983 1152.167, 471.829 1148.059 C 467.638 1140.066, 461.271 1137.665, 452.500 1140.770 M 1526.619 1140.003 C 1512.878 1144.267, 1512.497 1167.545, 1525.530 1206.529 C 1537.209 1241.461, 1554.007 1274.657, 1572.285 1298.924 C 1583.287 1313.530, 1598.994 1330.881, 1609.368 1339.885 C 1628.813 1356.764, 1636.223 1359.652, 1664.293 1361.294 C 1702.198 1363.511, 1729.549 1358.258, 1760.493 1342.816 C 1782.475 1331.846, 1799.599 1319.359, 1818.521 1300.500 C 1840.649 1278.445, 1854.840 1257.803, 1855.807 1246.262 C 1856.359 1239.675, 1854.488 1236.546, 1848.384 1233.846 C 1828.778 1225.173, 1789.324 1237.494, 1737.543 1268.461 C 1710.500 1284.634, 1662.002 1318.908, 1647.860 1331.842 C 1644.758 1334.679, 1641.797 1337, 1641.280 1337 C 1640.764 1337, 1640.291 1334.862, 1640.229 1332.250 C 1640.030 1323.767, 1637.009 1306.373, 1633.551 1293.795 C 1628.249 1274.508, 1618.404 1244.123, 1614.469 1234.900 C 1592.282 1182.892, 1546.786 1133.747, 1526.619 1140.003 M 980.500 1188.109 C 966.913 1189.746, 955.946 1196.824, 950.588 1207.413 C 948.079 1212.373, 947.793 1213.833, 948.240 1219.405 C 949.179 1231.102, 957.767 1243.369, 971.007 1251.926 C 974.440 1254.145, 978.768 1256.510, 980.625 1257.181 C 982.618 1257.902, 984 1259.083, 984 1260.067 C 984 1263.599, 976.851 1275.883, 972.415 1279.972 C 959.483 1291.892, 942.888 1292.601, 927.828 1281.877 C 923.366 1278.700, 917.507 1269.052, 915.470 1261.529 C 913.896 1255.712, 913.432 1255, 911.214 1255 C 908.774 1255, 908.738 1255.114, 909.383 1260.750 C 910.280 1268.586, 913.659 1278.516, 917.397 1284.305 C 929.261 1302.678, 968.284 1306.239, 985.743 1290.541 C 988.405 1288.148, 991.454 1284.572, 992.519 1282.595 C 993.584 1280.618, 994.700 1279, 995 1279 C 995.300 1279, 996.416 1280.618, 997.481 1282.595 C 998.546 1284.572, 1001.595 1288.148, 1004.257 1290.541 C 1021.716 1306.239, 1060.739 1302.678, 1072.603 1284.305 C 1076.341 1278.516, 1079.720 1268.586, 1080.617 1260.750 C 1081.262 1255.114, 1081.226 1255, 1078.786 1255 C 1076.568 1255, 1076.104 1255.712, 1074.530 1261.529 C 1072.493 1269.052, 1066.634 1278.700, 1062.172 1281.877 C 1047.112 1292.601, 1030.517 1291.892, 1017.585 1279.972 C 1013.149 1275.883, 1006 1263.599, 1006 1260.067 C 1006 1259.083, 1007.382 1257.902, 1009.375 1257.181 C 1014.715 1255.250, 1024.812 1248.326, 1029.889 1243.114 C 1032.448 1240.487, 1036.101 1235.449, 1038.008 1231.919 C 1041.078 1226.233, 1041.476 1224.643, 1041.487 1218 C 1041.499 1211.359, 1041.147 1209.927, 1038.419 1205.500 C 1034.032 1198.379, 1026.429 1192.522, 1018.326 1190.019 C 1010.969 1187.747, 991.615 1186.769, 980.500 1188.109 M 531.349 1274.750 C 518.058 1282.205, 497.393 1311.246, 486.140 1338.285 C 477.433 1359.206, 471.795 1380.389, 468.384 1405 C 465.058 1428.991, 466.210 1471.760, 470.699 1491 L 471.282 1493.500 468.891 1491.343 C 465.059 1487.885, 402.007 1457.408, 373.162 1445.069 C 330.193 1426.690, 289.943 1417.997, 254 1419.332 C 218.314 1420.659, 203.380 1429.760, 211.014 1445.530 C 216.808 1457.497, 247.512 1483.174, 268.951 1493.980 C 288.149 1503.657, 325.843 1515.389, 355.500 1520.920 C 389.602 1527.279, 416.145 1527.559, 444.934 1521.864 C 463.572 1518.177, 475.604 1513.377, 489.197 1504.204 C 498.014 1498.255, 501.278 1494.697, 509.666 1481.895 C 525.047 1458.420, 539 1422.719, 545.947 1389.063 C 554.874 1345.818, 555.097 1291.761, 546.404 1278.494 C 542.957 1273.232, 536.789 1271.699, 531.349 1274.750 M 1448.374 1273.985 C 1437.298 1278.458, 1433.837 1320.103, 1440.512 1368.563 C 1446.137 1409.391, 1461.526 1453.190, 1480.334 1481.895 C 1488.722 1494.697, 1491.986 1498.255, 1500.803 1504.204 C 1514.396 1513.377, 1526.428 1518.177, 1545.066 1521.864 C 1573.855 1527.559, 1600.398 1527.279, 1634.500 1520.920 C 1664.157 1515.389, 1701.851 1503.657, 1721.049 1493.980 C 1742.488 1483.174, 1773.192 1457.497, 1778.986 1445.530 C 1786.620 1429.760, 1771.686 1420.659, 1736 1419.332 C 1700.057 1417.997, 1659.807 1426.690, 1616.838 1445.069 C 1587.993 1457.408, 1524.941 1487.885, 1521.109 1491.343 L 1518.718 1493.500 1519.301 1491 C 1523.790 1471.760, 1524.942 1428.991, 1521.616 1405 C 1514.565 1354.130, 1495.579 1310.581, 1468.346 1282.814 C 1459.494 1273.788, 1454.419 1271.544, 1448.374 1273.985 M 614.932 1393.828 C 599.330 1403.722, 583.288 1433.563, 577.008 1464.369 C 571.950 1489.184, 569.748 1523.812, 571.939 1544.098 C 574.087 1563.995, 580.220 1589.574, 585.185 1599.347 C 586.260 1601.463, 586.926 1603.408, 586.665 1603.669 C 586.403 1603.930, 584.069 1603.424, 581.477 1602.544 C 576.028 1600.694, 532.788 1592.701, 519.500 1591.087 C 503.548 1589.150, 486.029 1588.001, 462.500 1587.350 C 443.576 1586.826, 437.196 1587.022, 426.500 1588.459 C 395.643 1592.605, 365.781 1603.592, 354.090 1615.100 C 347.955 1621.139, 342.809 1631.254, 342.213 1638.446 C 341.801 1643.416, 342.001 1643.995, 345.452 1647.815 C 355.960 1659.446, 373.657 1664.135, 418.141 1667.076 C 447.276 1669.001, 470.561 1667.958, 496 1663.587 C 548.801 1654.514, 571.508 1647.604, 595.317 1633.366 C 612.322 1623.196, 616.779 1616.163, 629.131 1580 C 638.605 1552.262, 642.805 1527.389, 645.039 1485.786 C 646.527 1458.076, 644.145 1425.563, 639.414 1409 C 634.765 1392.725, 625.613 1387.054, 614.932 1393.828 M 1359.738 1393.124 C 1351.559 1399.225, 1347.255 1415.871, 1344.957 1450.286 C 1342.833 1482.090, 1347.232 1530.451, 1355.027 1561 C 1359.055 1576.786, 1368.215 1601.748, 1374.211 1613.282 C 1380.049 1624.513, 1388.842 1631.399, 1410.183 1641.452 C 1430.031 1650.803, 1449.458 1655.933, 1494 1663.587 C 1519.439 1667.958, 1542.724 1669.001, 1571.859 1667.076 C 1616.343 1664.135, 1634.040 1659.446, 1644.548 1647.815 C 1647.999 1643.995, 1648.199 1643.416, 1647.787 1638.446 C 1647.191 1631.254, 1642.045 1621.139, 1635.910 1615.100 C 1624.219 1603.592, 1594.357 1592.605, 1563.500 1588.459 C 1552.804 1587.022, 1546.424 1586.826, 1527.500 1587.350 C 1503.971 1588.001, 1486.452 1589.150, 1470.500 1591.087 C 1457.212 1592.701, 1413.972 1600.694, 1408.523 1602.544 C 1405.931 1603.424, 1403.597 1603.930, 1403.335 1603.669 C 1403.074 1603.408, 1403.740 1601.463, 1404.815 1599.347 C 1409.780 1589.574, 1415.913 1563.995, 1418.061 1544.098 C 1420.252 1523.812, 1418.050 1489.184, 1412.992 1464.369 C 1407.879 1439.287, 1397.578 1417.068, 1383.880 1401.578 C 1375.077 1391.623, 1366.007 1388.447, 1359.738 1393.124 M 744.209 1476.954 C 738.288 1478.412, 734.308 1482.759, 729.063 1493.500 C 724.505 1502.835, 720.558 1518.174, 718.906 1532.971 C 717.182 1548.418, 718.270 1585.249, 720.901 1600.500 C 727.293 1637.547, 739.433 1669.389, 754.916 1689.711 C 758.776 1694.778, 761.596 1699.132, 761.182 1699.387 C 760.769 1699.643, 755.271 1699.387, 748.965 1698.818 C 736.360 1697.682, 688.932 1698.355, 662 1700.052 C 634.339 1701.795, 610.680 1704.849, 585 1709.993 C 536.693 1719.670, 511.410 1727.788, 501.500 1736.805 C 495.549 1742.220, 494 1744.978, 494 1750.157 C 494 1754.484, 494.467 1755.552, 498.074 1759.465 C 505.573 1767.600, 529.629 1777.554, 553.813 1782.529 C 572.432 1786.358, 587.123 1788.041, 607.500 1788.679 C 643.960 1789.820, 666.999 1784.885, 706.700 1767.430 C 733.493 1755.650, 757.289 1739.935, 774.578 1722.601 C 782.553 1714.605, 783.971 1712.637, 786.254 1706.390 C 789.860 1696.528, 793.663 1676.956, 795.083 1660.959 C 797.138 1637.817, 795.107 1600.214, 789.471 1557 C 785.084 1523.366, 775.680 1494.691, 765.791 1484.795 C 759.248 1478.246, 751.054 1475.269, 744.209 1476.954 M 1235.698 1477.421 C 1223.545 1481.830, 1216.346 1491.973, 1209.630 1514.151 C 1203.507 1534.371, 1201.122 1548.355, 1196.951 1588.500 C 1191.750 1638.568, 1194.145 1680.130, 1203.746 1706.390 C 1206.029 1712.637, 1207.447 1714.605, 1215.422 1722.601 C 1232.711 1739.935, 1256.507 1755.650, 1283.300 1767.430 C 1323.001 1784.885, 1346.040 1789.820, 1382.500 1788.679 C 1402.877 1788.041, 1417.568 1786.358, 1436.187 1782.529 C 1460.371 1777.554, 1484.427 1767.600, 1491.926 1759.465 C 1495.533 1755.552, 1496 1754.484, 1496 1750.157 C 1496 1744.978, 1494.451 1742.220, 1488.500 1736.805 C 1472.240 1722.010, 1394.702 1704.255, 1328 1700.052 C 1301.068 1698.355, 1253.640 1697.682, 1241.035 1698.818 C 1234.729 1699.387, 1229.231 1699.643, 1228.818 1699.387 C 1228.404 1699.132, 1231.224 1694.778, 1235.084 1689.711 C 1250.567 1669.389, 1262.707 1637.547, 1269.099 1600.500 C 1271.730 1585.249, 1272.818 1548.418, 1271.094 1532.971 C 1268.153 1506.626, 1259.589 1484.853, 1249.701 1478.587 C 1246.261 1476.407, 1239.943 1475.881, 1235.698 1477.421 M 981.906 1606.966 C 953.968 1610.518, 927.677 1625.678, 910.778 1647.980 C 903.896 1657.062, 896.441 1672.658, 893.319 1684.500 C 890.998 1693.306, 890.684 1696.410, 890.684 1710.500 C 890.684 1724.651, 890.991 1727.653, 893.342 1736.477 C 904.727 1779.211, 939.989 1809.213, 984.750 1814.251 C 1019.896 1818.207, 1057.219 1801.921, 1079.074 1773.093 C 1086.086 1763.843, 1093.577 1748.275, 1096.681 1736.500 C 1099.002 1727.694, 1099.316 1724.590, 1099.316 1710.500 C 1099.316 1696.410, 1099.002 1693.306, 1096.681 1684.500 C 1093.554 1672.638, 1086.101 1657.059, 1079.189 1647.937 C 1072.240 1638.766, 1059.666 1627.390, 1050.088 1621.608 C 1040.857 1616.036, 1027.335 1610.674, 1017.062 1608.513 C 1008.210 1606.651, 990.510 1605.872, 981.906 1606.966" stroke="none" fill="#046cac" fill-rule="evenodd"/></svg>