<svg xmlns="http://www.w3.org/2000/svg" width="1991" height="1991" viewBox="0 0 1991 1991" version="1.1"><path d="M 660.399 327.849 C 644.633 335.231, 636.010 360.505, 634.416 404 C 633.784 421.262, 635.050 461.685, 637.046 488 C 638.653 509.184, 647.852 581.121, 651.112 598 C 652.551 605.450, 664.305 656.971, 667.525 669.944 C 676.978 708.020, 701.826 765.415, 733.573 822.500 C 754.981 860.995, 782.999 906.280, 792.302 917.424 L 796.413 922.349 793.457 924.392 C 791.830 925.516, 786.802 930.145, 782.283 934.679 C 775.143 941.843, 773.350 944.402, 768.600 954.211 C 762.539 966.724, 759.414 975.870, 752.100 1002.500 C 737.598 1055.293, 727.125 1083.001, 706.177 1124 C 684.412 1166.598, 681.421 1172.982, 675.904 1188.612 C 667.895 1211.304, 664.935 1234.928, 666.916 1260.362 C 668.874 1285.509, 672.867 1301.422, 682.025 1320.564 C 696.096 1349.978, 716.680 1370.867, 745.500 1384.977 C 778.459 1401.113, 824.318 1417.803, 859.500 1426.465 C 871.952 1429.531, 912.154 1436.426, 929.500 1438.471 C 968.112 1443.024, 1021.888 1443.024, 1060.500 1438.471 C 1077.846 1436.426, 1118.048 1429.531, 1130.500 1426.465 C 1165.682 1417.803, 1211.541 1401.113, 1244.500 1384.977 C 1273.320 1370.867, 1293.904 1349.978, 1307.975 1320.564 C 1317.133 1301.422, 1321.126 1285.509, 1323.084 1260.362 C 1325.065 1234.928, 1322.105 1211.304, 1314.096 1188.612 C 1308.579 1172.982, 1305.588 1166.598, 1283.823 1124 C 1262.875 1083.001, 1252.402 1055.293, 1237.900 1002.500 C 1230.586 975.870, 1227.461 966.724, 1221.400 954.211 C 1216.650 944.402, 1214.857 941.843, 1207.717 934.679 C 1203.198 930.145, 1198.170 925.516, 1196.543 924.392 L 1193.587 922.349 1197.698 917.424 C 1207.001 906.280, 1235.019 860.995, 1256.427 822.500 C 1288.174 765.415, 1313.022 708.020, 1322.475 669.944 C 1325.695 656.971, 1337.449 605.450, 1338.888 598 C 1340.381 590.269, 1346.468 546.419, 1349.437 522 C 1355.898 468.861, 1357.648 404.834, 1353.421 376.189 C 1349.432 349.150, 1340.712 332.111, 1328.473 327.437 C 1325.119 326.156, 1321.960 325.861, 1315.282 326.205 C 1290.277 327.493, 1267.460 345.776, 1231.924 393 C 1203.974 430.144, 1164.384 496.176, 1140.414 545.630 C 1118.135 591.597, 1090.540 656.437, 1074.718 700 C 1048.945 770.957, 1035 830.146, 1035 868.580 L 1035 877.217 1032.275 876.533 C 1022.686 874.126, 1016.163 873.616, 995 873.616 C 973.837 873.616, 967.314 874.126, 957.725 876.533 L 955 877.217 955 868.580 C 955 830.146, 941.055 770.957, 915.282 700 C 899.460 656.437, 871.865 591.597, 849.586 545.630 C 825.616 496.176, 786.026 430.144, 758.076 393 C 729.855 355.497, 711.323 337.949, 691.373 329.836 C 681.120 325.668, 666.993 324.761, 660.399 327.849 M 482.500 359.036 C 474.388 361.636, 457.169 370.484, 446.908 377.326 C 415.797 398.070, 372.455 441.948, 350.501 474.925 C 337.892 493.865, 328.114 515.623, 323.502 535 C 321.051 545.296, 320.492 564.094, 322.375 572.906 C 325.395 587.042, 332.437 598.827, 340.785 603.720 C 350.087 609.171, 365.062 606.051, 381.426 595.251 C 390.132 589.505, 409.896 569.937, 420.608 556.457 C 430.017 544.616, 447.525 518.789, 458.540 500.500 C 474.581 473.867, 492.314 434.456, 498.375 411.967 C 503.796 391.855, 505.383 369.949, 501.946 362.675 C 499.222 356.911, 492.850 355.718, 482.500 359.036 M 1491.942 358.472 C 1488.326 360.438, 1486.791 364.359, 1486.252 373 C 1485.260 388.904, 1490.292 411.573, 1500.681 438 C 1512.641 468.426, 1527.563 496.053, 1550.350 529.957 C 1564.964 551.699, 1574.825 563.957, 1589.437 578.541 C 1602.876 591.955, 1611.799 598.375, 1623.574 603.100 C 1642.285 610.609, 1654.169 605.685, 1663.028 586.753 C 1667.776 576.608, 1669.305 567.524, 1668.626 553.500 C 1666.758 514.906, 1645.985 476.055, 1602.125 429.126 C 1575.162 400.277, 1548.200 378.584, 1524.092 366.341 C 1507.175 357.750, 1497.584 355.403, 1491.942 358.472 M 170.198 533.673 C 162.365 537.533, 158.604 553.134, 160.115 575.500 C 162.254 607.153, 171.214 645.853, 183.500 676.500 C 196.523 708.984, 211.069 731.291, 234.403 754.561 C 253.901 774.006, 268.765 782.713, 287.763 785.820 C 296.258 787.209, 297.793 787.192, 306.263 785.611 C 341.436 779.047, 378.290 760.493, 418.500 729.105 C 435.751 715.639, 455.663 698.163, 465.572 687.792 C 491.691 660.454, 506.747 630.113, 498.639 621.154 C 494.713 616.815, 475.584 615.533, 460.527 618.599 C 420.074 626.836, 367.015 662.451, 325.256 709.396 C 311.229 725.165, 298.316 741.955, 294.266 749.691 C 290.954 756.016, 290.727 755.656, 288.474 740.481 C 285.532 720.666, 278.359 698.127, 262.700 659.500 C 242.640 610.014, 231.255 588.047, 213.462 564.500 C 192.399 536.626, 180.872 528.412, 170.198 533.673 M 1805.193 534.591 C 1799.006 537.674, 1788.605 548.530, 1776.538 564.500 C 1758.745 588.047, 1747.360 610.014, 1727.300 659.500 C 1711.641 698.127, 1704.468 720.666, 1701.526 740.481 C 1699.273 755.656, 1699.046 756.016, 1695.734 749.691 C 1691.684 741.955, 1678.771 725.165, 1664.744 709.396 C 1622.985 662.451, 1569.926 626.836, 1529.473 618.599 C 1514.416 615.533, 1495.287 616.815, 1491.361 621.154 C 1483.253 630.113, 1498.309 660.454, 1524.428 687.792 C 1534.337 698.163, 1554.249 715.639, 1571.500 729.105 C 1611.710 760.493, 1648.564 779.047, 1683.737 785.611 C 1692.207 787.192, 1693.742 787.209, 1702.237 785.820 C 1721.235 782.713, 1736.099 774.006, 1755.597 754.561 C 1778.931 731.291, 1793.477 708.984, 1806.500 676.500 C 1825.029 630.279, 1835.289 566.673, 1827.651 545.364 C 1825.024 538.034, 1823.161 535.304, 1819.643 533.635 C 1814.828 531.350, 1811.217 531.589, 1805.193 534.591 M 89.306 777.498 C 77.415 785.827, 86.828 829.824, 108.661 867.967 C 125.217 896.890, 145.706 920.949, 170.503 940.581 C 194.909 959.903, 219.140 972.626, 241 977.595 C 253.753 980.494, 257.128 980.550, 269.140 978.060 C 285.986 974.567, 291.586 971.862, 316.534 955.166 C 340.596 939.062, 348.779 932.409, 366.500 914.539 C 395.594 885.201, 422.498 845.747, 427.582 824.965 C 429.051 818.964, 429.049 817.977, 427.563 812.863 C 424.062 800.820, 414.565 798.062, 396.936 803.968 C 367.525 813.822, 328.159 842.301, 302.204 872.500 C 288.735 888.173, 276.917 906.681, 263.522 933.084 C 253.495 952.848, 250 958.231, 250 953.911 C 250 953.377, 247.454 948.791, 244.341 943.720 C 241.229 938.649, 233.389 925.652, 226.919 914.837 C 204.852 877.950, 195.746 864.460, 177.415 841.500 C 150.633 807.956, 126.425 785.888, 108.175 778.382 C 101.508 775.640, 92.558 775.221, 89.306 777.498 M 1881.825 778.382 C 1863.575 785.888, 1839.367 807.956, 1812.585 841.500 C 1794.254 864.460, 1785.148 877.950, 1763.081 914.837 C 1756.611 925.652, 1748.771 938.649, 1745.659 943.720 C 1742.546 948.791, 1740 953.377, 1740 953.911 C 1740 958.231, 1736.505 952.848, 1726.478 933.084 C 1713.083 906.681, 1701.265 888.173, 1687.796 872.500 C 1651.833 830.655, 1591.750 794.324, 1571.315 802.067 C 1566.744 803.799, 1564.159 806.943, 1562.437 812.863 C 1560.951 817.977, 1560.949 818.964, 1562.418 824.965 C 1567.502 845.747, 1594.406 885.201, 1623.500 914.539 C 1641.221 932.409, 1649.404 939.062, 1673.466 955.166 C 1698.414 971.862, 1704.014 974.567, 1720.860 978.060 C 1732.872 980.550, 1736.247 980.494, 1749 977.595 C 1782.667 969.942, 1825 941.691, 1853.469 907.877 C 1882.754 873.096, 1903.661 829.004, 1905.672 797.784 C 1906.369 786.972, 1904.739 780.332, 1900.694 777.498 C 1897.442 775.221, 1888.492 775.640, 1881.825 778.382 M 391.500 979.213 C 383.347 982.082, 367.106 996.937, 354.053 1013.465 C 334.809 1037.832, 315.292 1072.544, 298.107 1112.969 C 289.948 1132.161, 280 1160.072, 280 1163.771 C 280 1164.813, 279.734 1165.933, 279.408 1166.259 C 279.082 1166.584, 272.901 1160.758, 265.671 1153.312 C 238.790 1125.625, 183.508 1080.247, 147 1055.902 C 131.617 1045.644, 110.752 1034.926, 101.794 1032.681 C 79.651 1027.130, 72.293 1036.155, 80.060 1059.337 C 86.695 1079.143, 101.843 1101.872, 124.036 1125.321 C 154.212 1157.207, 194.707 1180.473, 232.500 1187.639 C 243.261 1189.679, 274.372 1190.054, 283.207 1188.249 C 290.651 1186.729, 302.610 1181.080, 311.726 1174.779 C 334.100 1159.312, 363.159 1119.173, 386.496 1071.500 C 405.728 1032.213, 412.705 1001.942, 406.265 985.731 C 403.542 978.877, 398.625 976.707, 391.500 979.213 M 1587.751 979.981 C 1580.252 985.880, 1579.434 1002.537, 1585.507 1025.682 C 1593.845 1057.459, 1619.370 1106.496, 1645.604 1141.138 C 1665.567 1167.498, 1687.367 1184.282, 1706.793 1188.249 C 1715.628 1190.054, 1746.739 1189.679, 1757.500 1187.639 C 1795.293 1180.473, 1835.788 1157.207, 1865.964 1125.321 C 1888.157 1101.872, 1903.305 1079.143, 1909.940 1059.337 C 1917.707 1036.155, 1910.349 1027.130, 1888.206 1032.681 C 1879.248 1034.926, 1858.383 1045.644, 1843 1055.902 C 1806.424 1080.293, 1751.209 1125.625, 1724.220 1153.424 C 1716.930 1160.932, 1710.810 1166.496, 1710.619 1165.788 C 1701.459 1131.775, 1680.838 1083.963, 1660.679 1050 C 1635.990 1008.403, 1607.194 978, 1592.486 978 C 1591.267 978, 1589.136 978.892, 1587.751 979.981 M 868.224 999.017 C 839.035 1006.664, 827.581 1022.279, 815.016 1071.554 C 807.445 1101.241, 807.302 1116.132, 814.447 1130.590 C 820.364 1142.562, 830.940 1150.423, 849.060 1156.316 C 859.485 1159.706, 871.805 1161.321, 883.626 1160.846 C 892.930 1160.472, 894.345 1160.135, 901.612 1156.554 C 911.455 1151.705, 920.347 1143.096, 928.782 1130.251 C 935.929 1119.367, 939.629 1110.226, 944.030 1092.582 C 947.114 1080.219, 947.222 1079.125, 946.547 1067.082 C 944.511 1030.739, 935.433 1011.561, 916.181 1002.935 C 902.561 996.833, 882.739 995.213, 868.224 999.017 M 1085.500 998.972 C 1056.863 1006.589, 1045.841 1024.442, 1043.453 1067.082 C 1042.778 1079.125, 1042.886 1080.219, 1045.970 1092.582 C 1050.371 1110.226, 1054.071 1119.367, 1061.218 1130.251 C 1069.653 1143.096, 1078.545 1151.705, 1088.388 1156.554 C 1095.655 1160.135, 1097.070 1160.472, 1106.374 1160.846 C 1123.361 1161.528, 1140.058 1158.038, 1154.726 1150.738 C 1174.479 1140.907, 1183.116 1122.879, 1180.206 1097.553 C 1179.015 1087.191, 1172.849 1061.371, 1168.386 1048.054 C 1162.602 1030.800, 1154.371 1017.012, 1145.808 1010.236 C 1131.235 998.704, 1104.959 993.796, 1085.500 998.972 M 452.500 1140.770 C 436.645 1146.383, 412.774 1170.491, 394.308 1199.542 C 381.583 1219.560, 374.529 1235.163, 365.888 1262.400 C 354.715 1297.622, 350.116 1317.550, 349.771 1332.250 C 349.709 1334.862, 349.236 1337, 348.720 1337 C 348.203 1337, 345.242 1334.679, 342.140 1331.842 C 333.921 1324.325, 303.875 1302.056, 283.279 1288.215 C 234.134 1255.190, 197.688 1237.427, 168.724 1232.385 C 153.212 1229.685, 139.562 1232.160, 135.462 1238.418 C 129.151 1248.050, 143.267 1272.381, 171.479 1300.500 C 190.420 1319.377, 207.456 1331.796, 229.659 1342.911 C 260.059 1358.128, 289.061 1363.590, 327 1361.243 C 353.724 1359.591, 361.497 1356.495, 380.632 1339.885 C 391.006 1330.881, 406.713 1313.530, 417.715 1298.924 C 446.075 1261.270, 472.159 1198.361, 473.656 1164 C 474.120 1153.363, 473.983 1152.167, 471.829 1148.059 C 467.638 1140.066, 461.271 1137.665, 452.500 1140.770 M 1526.619 1140.003 C 1512.866 1144.270, 1512.491 1167.451, 1525.545 1206.500 C 1537.280 1241.606, 1553.968 1274.604, 1572.285 1298.924 C 1583.287 1313.530, 1598.994 1330.881, 1609.368 1339.885 C 1628.503 1356.495, 1636.276 1359.591, 1663 1361.243 C 1700.939 1363.590, 1729.941 1358.128, 1760.341 1342.911 C 1782.544 1331.796, 1799.580 1319.377, 1818.521 1300.500 C 1840.649 1278.445, 1854.840 1257.803, 1855.807 1246.262 C 1856.359 1239.675, 1854.488 1236.546, 1848.384 1233.846 C 1828.778 1225.173, 1789.324 1237.494, 1737.543 1268.461 C 1710.500 1284.634, 1662.002 1318.908, 1647.860 1331.842 C 1644.758 1334.679, 1641.797 1337, 1641.280 1337 C 1640.764 1337, 1640.291 1334.862, 1640.229 1332.250 C 1640.030 1323.767, 1637.009 1306.373, 1633.551 1293.795 C 1628.249 1274.508, 1618.404 1244.123, 1614.469 1234.900 C 1592.282 1182.892, 1546.786 1133.747, 1526.619 1140.003 M 980.500 1188.077 C 966.837 1189.796, 955.937 1196.842, 950.588 1207.413 C 948.079 1212.373, 947.793 1213.833, 948.240 1219.405 C 949.179 1231.102, 957.767 1243.369, 971.007 1251.926 C 974.440 1254.145, 978.768 1256.510, 980.625 1257.181 C 982.618 1257.902, 984 1259.083, 984 1260.067 C 984 1263.599, 976.851 1275.883, 972.415 1279.972 C 959.483 1291.892, 942.888 1292.601, 927.828 1281.877 C 923.366 1278.700, 917.507 1269.052, 915.470 1261.529 C 913.896 1255.712, 913.432 1255, 911.214 1255 C 908.774 1255, 908.738 1255.114, 909.383 1260.750 C 910.280 1268.586, 913.659 1278.516, 917.397 1284.305 C 929.261 1302.678, 968.284 1306.239, 985.743 1290.541 C 988.405 1288.148, 991.454 1284.572, 992.519 1282.595 C 993.584 1280.618, 994.700 1279, 995 1279 C 995.300 1279, 996.416 1280.618, 997.481 1282.595 C 998.546 1284.572, 1001.595 1288.148, 1004.257 1290.541 C 1021.716 1306.239, 1060.739 1302.678, 1072.603 1284.305 C 1076.341 1278.516, 1079.720 1268.586, 1080.617 1260.750 C 1081.262 1255.114, 1081.226 1255, 1078.786 1255 C 1076.568 1255, 1076.104 1255.712, 1074.530 1261.529 C 1072.493 1269.052, 1066.634 1278.700, 1062.172 1281.877 C 1047.112 1292.601, 1030.517 1291.892, 1017.585 1279.972 C 1013.149 1275.883, 1006 1263.599, 1006 1260.067 C 1006 1259.083, 1007.382 1257.902, 1009.375 1257.181 C 1014.715 1255.250, 1024.812 1248.326, 1029.889 1243.114 C 1032.448 1240.487, 1036.101 1235.449, 1038.008 1231.919 C 1041.078 1226.233, 1041.476 1224.643, 1041.487 1218 C 1041.499 1211.359, 1041.147 1209.927, 1038.419 1205.500 C 1034.029 1198.375, 1026.430 1192.522, 1018.316 1190.016 C 1010.876 1187.718, 991.325 1186.716, 980.500 1188.077 M 531.349 1274.750 C 518.058 1282.205, 497.393 1311.246, 486.140 1338.285 C 477.308 1359.507, 471.597 1381.110, 468.346 1405.595 C 465.089 1430.134, 466.239 1471.886, 470.699 1491 L 471.282 1493.500 468.891 1491.343 C 466.030 1488.762, 456.122 1483.772, 416.938 1465.177 C 362.213 1439.209, 343.578 1432.142, 310 1424.624 C 292.978 1420.813, 280.459 1419.547, 260 1419.566 C 242.280 1419.582, 238.313 1419.882, 230.744 1421.775 C 211.322 1426.634, 205.348 1433.825, 211.014 1445.530 C 216.808 1457.497, 247.512 1483.174, 268.951 1493.980 C 296.128 1507.678, 346.073 1521.108, 384.500 1525.050 C 405.646 1527.220, 436.761 1524.781, 456 1519.447 C 472.320 1514.922, 491.858 1504.327, 499.518 1495.849 C 509.416 1484.893, 526.170 1454.058, 533.395 1433.500 C 538.227 1419.751, 543.373 1401.531, 545.947 1389.063 C 554.874 1345.818, 555.097 1291.761, 546.404 1278.494 C 542.957 1273.232, 536.789 1271.699, 531.349 1274.750 M 1447.893 1274.497 C 1441.556 1277.941, 1438.229 1289.609, 1437.341 1311.500 C 1435.343 1360.781, 1446.641 1415.937, 1467.455 1458.500 C 1475.071 1474.076, 1484.225 1488.922, 1490.482 1495.849 C 1498.142 1504.327, 1517.680 1514.922, 1534 1519.447 C 1553.239 1524.781, 1584.354 1527.220, 1605.500 1525.050 C 1643.927 1521.108, 1693.872 1507.678, 1721.049 1493.980 C 1742.488 1483.174, 1773.192 1457.497, 1778.986 1445.530 C 1784.652 1433.825, 1778.678 1426.634, 1759.256 1421.775 C 1751.687 1419.882, 1747.720 1419.582, 1730 1419.566 C 1709.541 1419.547, 1697.022 1420.813, 1680 1424.624 C 1646.422 1432.142, 1627.787 1439.209, 1573.062 1465.177 C 1533.878 1483.772, 1523.970 1488.762, 1521.109 1491.343 L 1518.718 1493.500 1519.301 1491 C 1523.761 1471.886, 1524.911 1430.134, 1521.654 1405.595 C 1514.937 1354.999, 1495.711 1310.715, 1468.346 1282.814 C 1459.097 1273.383, 1453.860 1271.254, 1447.893 1274.497 M 614.932 1393.828 C 603.628 1400.997, 589.610 1422.512, 582.567 1443.500 C 573.835 1469.520, 569.017 1514.829, 571.934 1543.500 C 573.968 1563.503, 580.097 1589.331, 585.185 1599.347 C 586.260 1601.463, 586.931 1603.403, 586.676 1603.658 C 586.420 1603.913, 583.126 1603.204, 579.356 1602.083 C 571.755 1599.822, 533.545 1592.806, 519.500 1591.092 C 503.618 1589.155, 486.072 1588.003, 462.500 1587.350 C 443.576 1586.826, 437.196 1587.022, 426.500 1588.459 C 395.643 1592.605, 365.781 1603.592, 354.090 1615.100 C 347.955 1621.139, 342.809 1631.254, 342.213 1638.446 C 341.801 1643.416, 342.001 1643.995, 345.452 1647.815 C 355.891 1659.370, 374.063 1664.187, 418.141 1667.083 C 447.317 1668.999, 470.578 1667.955, 496 1663.587 C 548.586 1654.551, 571.602 1647.550, 595.280 1633.389 C 612.327 1623.193, 616.772 1616.183, 629.131 1580 C 638.612 1552.242, 642.805 1527.395, 645.044 1485.693 C 646.517 1458.267, 644.056 1424.838, 639.386 1408.837 C 634.668 1392.667, 625.569 1387.083, 614.932 1393.828 M 1359.738 1393.124 C 1351.557 1399.227, 1347.387 1415.351, 1344.978 1450.193 C 1342.798 1481.723, 1347.209 1530.360, 1355.027 1561 C 1359.055 1576.786, 1368.215 1601.748, 1374.211 1613.282 C 1380.062 1624.538, 1389.018 1631.537, 1410.285 1641.475 C 1430.487 1650.916, 1449.527 1655.945, 1494 1663.587 C 1519.422 1667.955, 1542.683 1668.999, 1571.859 1667.083 C 1615.937 1664.187, 1634.109 1659.370, 1644.548 1647.815 C 1647.999 1643.995, 1648.199 1643.416, 1647.787 1638.446 C 1647.191 1631.254, 1642.045 1621.139, 1635.910 1615.100 C 1624.219 1603.592, 1594.357 1592.605, 1563.500 1588.459 C 1552.804 1587.022, 1546.424 1586.826, 1527.500 1587.350 C 1503.928 1588.003, 1486.382 1589.155, 1470.500 1591.092 C 1456.455 1592.806, 1418.245 1599.822, 1410.644 1602.083 C 1406.874 1603.204, 1403.580 1603.913, 1403.324 1603.658 C 1403.069 1603.403, 1403.740 1601.463, 1404.815 1599.347 C 1409.903 1589.331, 1416.032 1563.503, 1418.066 1543.500 C 1420.983 1514.829, 1416.165 1469.520, 1407.433 1443.500 C 1400.390 1422.512, 1386.372 1400.997, 1375.068 1393.828 C 1369.606 1390.364, 1363.795 1390.097, 1359.738 1393.124 M 744.209 1476.954 C 738.288 1478.412, 734.308 1482.759, 729.063 1493.500 C 724.505 1502.835, 720.558 1518.174, 718.906 1532.971 C 717.182 1548.418, 718.270 1585.249, 720.901 1600.500 C 727.293 1637.547, 739.433 1669.389, 754.916 1689.711 C 758.776 1694.778, 761.596 1699.132, 761.182 1699.387 C 760.769 1699.643, 755.271 1699.387, 748.965 1698.819 C 736.480 1697.693, 688.646 1698.357, 662.324 1700.021 C 634.848 1701.758, 610.299 1704.941, 584.661 1710.091 C 536.164 1719.833, 511.416 1727.783, 501.500 1736.805 C 495.549 1742.220, 494 1744.978, 494 1750.157 C 494 1754.484, 494.467 1755.552, 498.074 1759.465 C 505.502 1767.523, 529.812 1777.591, 553.705 1782.506 C 572.432 1786.359, 587.089 1788.040, 607.500 1788.679 C 645.977 1789.884, 671.234 1783.995, 715.500 1763.500 C 735.718 1754.140, 759.366 1737.753, 774.578 1722.564 C 782.568 1714.585, 783.966 1712.649, 786.254 1706.390 C 789.937 1696.317, 793.733 1676.556, 795.097 1660.356 C 797.081 1636.791, 795.078 1599.987, 789.471 1557 C 785.084 1523.366, 775.680 1494.691, 765.791 1484.795 C 759.248 1478.246, 751.054 1475.269, 744.209 1476.954 M 1235.698 1477.459 C 1223.626 1481.717, 1216.351 1491.956, 1209.630 1514.151 C 1203.504 1534.380, 1201.114 1548.403, 1196.955 1588.500 C 1191.768 1638.515, 1194.169 1680.194, 1203.746 1706.390 C 1206.034 1712.649, 1207.432 1714.585, 1215.422 1722.564 C 1230.634 1737.753, 1254.282 1754.140, 1274.500 1763.500 C 1318.766 1783.995, 1344.023 1789.884, 1382.500 1788.679 C 1402.911 1788.040, 1417.568 1786.359, 1436.295 1782.506 C 1460.188 1777.591, 1484.498 1767.523, 1491.926 1759.465 C 1495.533 1755.552, 1496 1754.484, 1496 1750.157 C 1496 1744.978, 1494.451 1742.220, 1488.500 1736.805 C 1472.246 1722.016, 1394.572 1704.250, 1327.676 1700.021 C 1301.354 1698.357, 1253.520 1697.693, 1241.035 1698.819 C 1234.729 1699.387, 1229.231 1699.643, 1228.818 1699.387 C 1228.404 1699.132, 1231.224 1694.778, 1235.084 1689.711 C 1250.567 1669.389, 1262.707 1637.547, 1269.099 1600.500 C 1271.730 1585.249, 1272.818 1548.418, 1271.094 1532.971 C 1268.153 1506.619, 1259.547 1484.750, 1249.701 1478.609 C 1246.300 1476.488, 1239.935 1475.965, 1235.698 1477.459 M 981.906 1606.966 C 953.968 1610.518, 927.677 1625.678, 910.778 1647.980 C 903.896 1657.062, 896.441 1672.658, 893.319 1684.500 C 890.998 1693.306, 890.684 1696.410, 890.684 1710.500 C 890.684 1724.651, 890.991 1727.653, 893.342 1736.477 C 904.727 1779.211, 939.989 1809.213, 984.750 1814.251 C 1019.895 1818.207, 1057.161 1801.948, 1079.085 1773.093 C 1085.990 1764.005, 1093.484 1748.390, 1096.658 1736.477 C 1099.009 1727.653, 1099.316 1724.651, 1099.316 1710.500 C 1099.316 1696.410, 1099.002 1693.306, 1096.681 1684.500 C 1093.554 1672.638, 1086.101 1657.059, 1079.189 1647.937 C 1072.240 1638.766, 1059.666 1627.390, 1050.088 1621.608 C 1040.857 1616.036, 1027.335 1610.674, 1017.062 1608.513 C 1008.210 1606.651, 990.510 1605.872, 981.906 1606.966" stroke="none" fill="#050505" fill-rule="evenodd"/><path d="M 467.500 1.047 C 322.330 9.374, 186.530 82.102, 98.809 198.500 C 48.108 265.775, 14.471 346.615, 3.418 427.750 C 2.425 435.037, 1.250 441, 0.806 441 C 0.363 441, 0 690.075, 0 994.500 C 0 1298.925, 0.361 1548, 0.803 1548 C 1.244 1548, 2.176 1552.612, 2.873 1558.250 C 6.253 1585.582, 14.580 1621.727, 24.010 1650 C 60.673 1759.923, 134.670 1853.749, 233.311 1915.389 C 300.265 1957.228, 374.949 1981.873, 457 1989.204 C 478.362 1991.113, 1509.192 1991.112, 1532 1989.203 C 1618.987 1981.923, 1697.435 1955.098, 1768 1908.503 C 1831.984 1866.254, 1882.402 1813.548, 1922.331 1747.169 C 1958.502 1687.038, 1982.867 1613.737, 1989.698 1544.500 L 1990.488 1536.500 1991.081 1542 C 1991.407 1545.025, 1991.659 1298.200, 1991.641 993.500 C 1991.623 688.800, 1991.419 442.650, 1991.188 446.500 C 1990.791 453.117, 1990.636 452.488, 1988.363 435 C 1978.588 359.831, 1952.662 289.473, 1911.534 226.500 C 1856.501 142.237, 1778.162 77.133, 1685.147 38.362 C 1630.967 15.779, 1576.914 3.897, 1515.241 1.014 C 1490.772 -0.130, 487.466 -0.099, 467.500 1.047 M 660.399 327.849 C 644.633 335.231, 636.010 360.505, 634.416 404 C 633.784 421.262, 635.050 461.685, 637.046 488 C 638.653 509.184, 647.852 581.121, 651.112 598 C 652.551 605.450, 664.305 656.971, 667.525 669.944 C 676.978 708.020, 701.826 765.415, 733.573 822.500 C 754.981 860.995, 782.999 906.280, 792.302 917.424 L 796.413 922.349 793.457 924.392 C 791.830 925.516, 786.802 930.145, 782.283 934.679 C 775.143 941.843, 773.350 944.402, 768.600 954.211 C 762.539 966.724, 759.414 975.870, 752.100 1002.500 C 737.598 1055.293, 727.125 1083.001, 706.177 1124 C 684.412 1166.598, 681.421 1172.982, 675.904 1188.612 C 667.895 1211.304, 664.935 1234.928, 666.916 1260.362 C 668.874 1285.509, 672.867 1301.422, 682.025 1320.564 C 696.096 1349.978, 716.680 1370.867, 745.500 1384.977 C 778.459 1401.113, 824.318 1417.803, 859.500 1426.465 C 871.952 1429.531, 912.154 1436.426, 929.500 1438.471 C 968.112 1443.024, 1021.888 1443.024, 1060.500 1438.471 C 1077.846 1436.426, 1118.048 1429.531, 1130.500 1426.465 C 1165.682 1417.803, 1211.541 1401.113, 1244.500 1384.977 C 1273.320 1370.867, 1293.904 1349.978, 1307.975 1320.564 C 1317.133 1301.422, 1321.126 1285.509, 1323.084 1260.362 C 1325.065 1234.928, 1322.105 1211.304, 1314.096 1188.612 C 1308.579 1172.982, 1305.588 1166.598, 1283.823 1124 C 1262.875 1083.001, 1252.402 1055.293, 1237.900 1002.500 C 1230.586 975.870, 1227.461 966.724, 1221.400 954.211 C 1216.650 944.402, 1214.857 941.843, 1207.717 934.679 C 1203.198 930.145, 1198.170 925.516, 1196.543 924.392 L 1193.587 922.349 1197.698 917.424 C 1207.001 906.280, 1235.019 860.995, 1256.427 822.500 C 1288.174 765.415, 1313.022 708.020, 1322.475 669.944 C 1325.695 656.971, 1337.449 605.450, 1338.888 598 C 1340.381 590.269, 1346.468 546.419, 1349.437 522 C 1355.898 468.861, 1357.648 404.834, 1353.421 376.189 C 1349.432 349.150, 1340.712 332.111, 1328.473 327.437 C 1325.119 326.156, 1321.960 325.861, 1315.282 326.205 C 1290.277 327.493, 1267.460 345.776, 1231.924 393 C 1203.974 430.144, 1164.384 496.176, 1140.414 545.630 C 1118.135 591.597, 1090.540 656.437, 1074.718 700 C 1048.945 770.957, 1035 830.146, 1035 868.580 L 1035 877.217 1032.275 876.533 C 1022.686 874.126, 1016.163 873.616, 995 873.616 C 973.837 873.616, 967.314 874.126, 957.725 876.533 L 955 877.217 955 868.580 C 955 830.146, 941.055 770.957, 915.282 700 C 899.460 656.437, 871.865 591.597, 849.586 545.630 C 825.616 496.176, 786.026 430.144, 758.076 393 C 729.855 355.497, 711.323 337.949, 691.373 329.836 C 681.120 325.668, 666.993 324.761, 660.399 327.849 M 482.500 359.036 C 474.388 361.636, 457.169 370.484, 446.908 377.326 C 415.797 398.070, 372.455 441.948, 350.501 474.925 C 337.892 493.865, 328.114 515.623, 323.502 535 C 321.051 545.296, 320.492 564.094, 322.375 572.906 C 325.395 587.042, 332.437 598.827, 340.785 603.720 C 350.087 609.171, 365.062 606.051, 381.426 595.251 C 390.132 589.505, 409.896 569.937, 420.608 556.457 C 430.017 544.616, 447.525 518.789, 458.540 500.500 C 474.581 473.867, 492.314 434.456, 498.375 411.967 C 503.796 391.855, 505.383 369.949, 501.946 362.675 C 499.222 356.911, 492.850 355.718, 482.500 359.036 M 1491.942 358.472 C 1488.326 360.438, 1486.791 364.359, 1486.252 373 C 1485.260 388.904, 1490.292 411.573, 1500.681 438 C 1512.641 468.426, 1527.563 496.053, 1550.350 529.957 C 1564.964 551.699, 1574.825 563.957, 1589.437 578.541 C 1602.876 591.955, 1611.799 598.375, 1623.574 603.100 C 1642.285 610.609, 1654.169 605.685, 1663.028 586.753 C 1667.776 576.608, 1669.305 567.524, 1668.626 553.500 C 1666.758 514.906, 1645.985 476.055, 1602.125 429.126 C 1575.162 400.277, 1548.200 378.584, 1524.092 366.341 C 1507.175 357.750, 1497.584 355.403, 1491.942 358.472 M 0.496 994.500 C 0.496 1299.200, 0.611 1423.701, 0.750 1271.168 C 0.889 1118.635, 0.889 869.335, 0.750 717.168 C 0.611 565.001, 0.496 689.800, 0.496 994.500 M 170.198 533.673 C 162.365 537.533, 158.604 553.134, 160.115 575.500 C 162.254 607.153, 171.214 645.853, 183.500 676.500 C 196.523 708.984, 211.069 731.291, 234.403 754.561 C 253.901 774.006, 268.765 782.713, 287.763 785.820 C 296.258 787.209, 297.793 787.192, 306.263 785.611 C 341.436 779.047, 378.290 760.493, 418.500 729.105 C 435.751 715.639, 455.663 698.163, 465.572 687.792 C 491.691 660.454, 506.747 630.113, 498.639 621.154 C 494.713 616.815, 475.584 615.533, 460.527 618.599 C 420.074 626.836, 367.015 662.451, 325.256 709.396 C 311.229 725.165, 298.316 741.955, 294.266 749.691 C 290.954 756.016, 290.727 755.656, 288.474 740.481 C 285.532 720.666, 278.359 698.127, 262.700 659.500 C 242.640 610.014, 231.255 588.047, 213.462 564.500 C 192.399 536.626, 180.872 528.412, 170.198 533.673 M 1805.193 534.591 C 1799.006 537.674, 1788.605 548.530, 1776.538 564.500 C 1758.745 588.047, 1747.360 610.014, 1727.300 659.500 C 1711.641 698.127, 1704.468 720.666, 1701.526 740.481 C 1699.273 755.656, 1699.046 756.016, 1695.734 749.691 C 1691.684 741.955, 1678.771 725.165, 1664.744 709.396 C 1622.985 662.451, 1569.926 626.836, 1529.473 618.599 C 1514.416 615.533, 1495.287 616.815, 1491.361 621.154 C 1483.253 630.113, 1498.309 660.454, 1524.428 687.792 C 1534.337 698.163, 1554.249 715.639, 1571.500 729.105 C 1611.710 760.493, 1648.564 779.047, 1683.737 785.611 C 1692.207 787.192, 1693.742 787.209, 1702.237 785.820 C 1721.235 782.713, 1736.099 774.006, 1755.597 754.561 C 1778.931 731.291, 1793.477 708.984, 1806.500 676.500 C 1825.029 630.279, 1835.289 566.673, 1827.651 545.364 C 1825.024 538.034, 1823.161 535.304, 1819.643 533.635 C 1814.828 531.350, 1811.217 531.589, 1805.193 534.591 M 89.306 777.498 C 77.415 785.827, 86.828 829.824, 108.661 867.967 C 125.217 896.890, 145.706 920.949, 170.503 940.581 C 194.909 959.903, 219.140 972.626, 241 977.595 C 253.753 980.494, 257.128 980.550, 269.140 978.060 C 285.986 974.567, 291.586 971.862, 316.534 955.166 C 340.596 939.062, 348.779 932.409, 366.500 914.539 C 395.594 885.201, 422.498 845.747, 427.582 824.965 C 429.051 818.964, 429.049 817.977, 427.563 812.863 C 424.062 800.820, 414.565 798.062, 396.936 803.968 C 367.525 813.822, 328.159 842.301, 302.204 872.500 C 288.735 888.173, 276.917 906.681, 263.522 933.084 C 253.495 952.848, 250 958.231, 250 953.911 C 250 953.377, 247.454 948.791, 244.341 943.720 C 241.229 938.649, 233.389 925.652, 226.919 914.837 C 204.852 877.950, 195.746 864.460, 177.415 841.500 C 150.633 807.956, 126.425 785.888, 108.175 778.382 C 101.508 775.640, 92.558 775.221, 89.306 777.498 M 1881.825 778.382 C 1863.575 785.888, 1839.367 807.956, 1812.585 841.500 C 1794.254 864.460, 1785.148 877.950, 1763.081 914.837 C 1756.611 925.652, 1748.771 938.649, 1745.659 943.720 C 1742.546 948.791, 1740 953.377, 1740 953.911 C 1740 958.231, 1736.505 952.848, 1726.478 933.084 C 1713.083 906.681, 1701.265 888.173, 1687.796 872.500 C 1651.833 830.655, 1591.750 794.324, 1571.315 802.067 C 1566.744 803.799, 1564.159 806.943, 1562.437 812.863 C 1560.951 817.977, 1560.949 818.964, 1562.418 824.965 C 1567.502 845.747, 1594.406 885.201, 1623.500 914.539 C 1641.221 932.409, 1649.404 939.062, 1673.466 955.166 C 1698.414 971.862, 1704.014 974.567, 1720.860 978.060 C 1732.872 980.550, 1736.247 980.494, 1749 977.595 C 1782.667 969.942, 1825 941.691, 1853.469 907.877 C 1882.754 873.096, 1903.661 829.004, 1905.672 797.784 C 1906.369 786.972, 1904.739 780.332, 1900.694 777.498 C 1897.442 775.221, 1888.492 775.640, 1881.825 778.382 M 391.500 979.213 C 383.347 982.082, 367.106 996.937, 354.053 1013.465 C 334.809 1037.832, 315.292 1072.544, 298.107 1112.969 C 289.948 1132.161, 280 1160.072, 280 1163.771 C 280 1164.813, 279.734 1165.933, 279.408 1166.259 C 279.082 1166.584, 272.901 1160.758, 265.671 1153.312 C 238.790 1125.625, 183.508 1080.247, 147 1055.902 C 131.617 1045.644, 110.752 1034.926, 101.794 1032.681 C 79.651 1027.130, 72.293 1036.155, 80.060 1059.337 C 86.695 1079.143, 101.843 1101.872, 124.036 1125.321 C 154.212 1157.207, 194.707 1180.473, 232.500 1187.639 C 243.261 1189.679, 274.372 1190.054, 283.207 1188.249 C 290.651 1186.729, 302.610 1181.080, 311.726 1174.779 C 334.100 1159.312, 363.159 1119.173, 386.496 1071.500 C 405.728 1032.213, 412.705 1001.942, 406.265 985.731 C 403.542 978.877, 398.625 976.707, 391.500 979.213 M 1587.751 979.981 C 1580.252 985.880, 1579.434 1002.537, 1585.507 1025.682 C 1593.845 1057.459, 1619.370 1106.496, 1645.604 1141.138 C 1665.567 1167.498, 1687.367 1184.282, 1706.793 1188.249 C 1715.628 1190.054, 1746.739 1189.679, 1757.500 1187.639 C 1795.293 1180.473, 1835.788 1157.207, 1865.964 1125.321 C 1888.157 1101.872, 1903.305 1079.143, 1909.940 1059.337 C 1917.707 1036.155, 1910.349 1027.130, 1888.206 1032.681 C 1879.248 1034.926, 1858.383 1045.644, 1843 1055.902 C 1806.424 1080.293, 1751.209 1125.625, 1724.220 1153.424 C 1716.930 1160.932, 1710.810 1166.496, 1710.619 1165.788 C 1701.459 1131.775, 1680.838 1083.963, 1660.679 1050 C 1635.990 1008.403, 1607.194 978, 1592.486 978 C 1591.267 978, 1589.136 978.892, 1587.751 979.981 M 868.224 999.017 C 839.035 1006.664, 827.581 1022.279, 815.016 1071.554 C 807.445 1101.241, 807.302 1116.132, 814.447 1130.590 C 820.364 1142.562, 830.940 1150.423, 849.060 1156.316 C 859.485 1159.706, 871.805 1161.321, 883.626 1160.846 C 892.930 1160.472, 894.345 1160.135, 901.612 1156.554 C 911.455 1151.705, 920.347 1143.096, 928.782 1130.251 C 935.929 1119.367, 939.629 1110.226, 944.030 1092.582 C 947.114 1080.219, 947.222 1079.125, 946.547 1067.082 C 944.511 1030.739, 935.433 1011.561, 916.181 1002.935 C 902.561 996.833, 882.739 995.213, 868.224 999.017 M 1085.500 998.972 C 1056.863 1006.589, 1045.841 1024.442, 1043.453 1067.082 C 1042.778 1079.125, 1042.886 1080.219, 1045.970 1092.582 C 1050.371 1110.226, 1054.071 1119.367, 1061.218 1130.251 C 1069.653 1143.096, 1078.545 1151.705, 1088.388 1156.554 C 1095.655 1160.135, 1097.070 1160.472, 1106.374 1160.846 C 1123.361 1161.528, 1140.058 1158.038, 1154.726 1150.738 C 1174.479 1140.907, 1183.116 1122.879, 1180.206 1097.553 C 1179.015 1087.191, 1172.849 1061.371, 1168.386 1048.054 C 1162.602 1030.800, 1154.371 1017.012, 1145.808 1010.236 C 1131.235 998.704, 1104.959 993.796, 1085.500 998.972 M 452.500 1140.770 C 436.645 1146.383, 412.774 1170.491, 394.308 1199.542 C 381.583 1219.560, 374.529 1235.163, 365.888 1262.400 C 354.715 1297.622, 350.116 1317.550, 349.771 1332.250 C 349.709 1334.862, 349.236 1337, 348.720 1337 C 348.203 1337, 345.242 1334.679, 342.140 1331.842 C 333.921 1324.325, 303.875 1302.056, 283.279 1288.215 C 234.134 1255.190, 197.688 1237.427, 168.724 1232.385 C 153.212 1229.685, 139.562 1232.160, 135.462 1238.418 C 129.151 1248.050, 143.267 1272.381, 171.479 1300.500 C 190.420 1319.377, 207.456 1331.796, 229.659 1342.911 C 260.059 1358.128, 289.061 1363.590, 327 1361.243 C 353.724 1359.591, 361.497 1356.495, 380.632 1339.885 C 391.006 1330.881, 406.713 1313.530, 417.715 1298.924 C 446.075 1261.270, 472.159 1198.361, 473.656 1164 C 474.120 1153.363, 473.983 1152.167, 471.829 1148.059 C 467.638 1140.066, 461.271 1137.665, 452.500 1140.770 M 1526.619 1140.003 C 1512.866 1144.270, 1512.491 1167.451, 1525.545 1206.500 C 1537.280 1241.606, 1553.968 1274.604, 1572.285 1298.924 C 1583.287 1313.530, 1598.994 1330.881, 1609.368 1339.885 C 1628.503 1356.495, 1636.276 1359.591, 1663 1361.243 C 1700.939 1363.590, 1729.941 1358.128, 1760.341 1342.911 C 1782.544 1331.796, 1799.580 1319.377, 1818.521 1300.500 C 1840.649 1278.445, 1854.840 1257.803, 1855.807 1246.262 C 1856.359 1239.675, 1854.488 1236.546, 1848.384 1233.846 C 1828.778 1225.173, 1789.324 1237.494, 1737.543 1268.461 C 1710.500 1284.634, 1662.002 1318.908, 1647.860 1331.842 C 1644.758 1334.679, 1641.797 1337, 1641.280 1337 C 1640.764 1337, 1640.291 1334.862, 1640.229 1332.250 C 1640.030 1323.767, 1637.009 1306.373, 1633.551 1293.795 C 1628.249 1274.508, 1618.404 1244.123, 1614.469 1234.900 C 1592.282 1182.892, 1546.786 1133.747, 1526.619 1140.003 M 980.500 1188.077 C 966.837 1189.796, 955.937 1196.842, 950.588 1207.413 C 948.079 1212.373, 947.793 1213.833, 948.240 1219.405 C 949.179 1231.102, 957.767 1243.369, 971.007 1251.926 C 974.440 1254.145, 978.768 1256.510, 980.625 1257.181 C 982.618 1257.902, 984 1259.083, 984 1260.067 C 984 1263.599, 976.851 1275.883, 972.415 1279.972 C 959.483 1291.892, 942.888 1292.601, 927.828 1281.877 C 923.366 1278.700, 917.507 1269.052, 915.470 1261.529 C 913.896 1255.712, 913.432 1255, 911.214 1255 C 908.774 1255, 908.738 1255.114, 909.383 1260.750 C 910.280 1268.586, 913.659 1278.516, 917.397 1284.305 C 929.261 1302.678, 968.284 1306.239, 985.743 1290.541 C 988.405 1288.148, 991.454 1284.572, 992.519 1282.595 C 993.584 1280.618, 994.700 1279, 995 1279 C 995.300 1279, 996.416 1280.618, 997.481 1282.595 C 998.546 1284.572, 1001.595 1288.148, 1004.257 1290.541 C 1021.716 1306.239, 1060.739 1302.678, 1072.603 1284.305 C 1076.341 1278.516, 1079.720 1268.586, 1080.617 1260.750 C 1081.262 1255.114, 1081.226 1255, 1078.786 1255 C 1076.568 1255, 1076.104 1255.712, 1074.530 1261.529 C 1072.493 1269.052, 1066.634 1278.700, 1062.172 1281.877 C 1047.112 1292.601, 1030.517 1291.892, 1017.585 1279.972 C 1013.149 1275.883, 1006 1263.599, 1006 1260.067 C 1006 1259.083, 1007.382 1257.902, 1009.375 1257.181 C 1014.715 1255.250, 1024.812 1248.326, 1029.889 1243.114 C 1032.448 1240.487, 1036.101 1235.449, 1038.008 1231.919 C 1041.078 1226.233, 1041.476 1224.643, 1041.487 1218 C 1041.499 1211.359, 1041.147 1209.927, 1038.419 1205.500 C 1034.029 1198.375, 1026.430 1192.522, 1018.316 1190.016 C 1010.876 1187.718, 991.325 1186.716, 980.500 1188.077 M 531.349 1274.750 C 518.058 1282.205, 497.393 1311.246, 486.140 1338.285 C 477.308 1359.507, 471.597 1381.110, 468.346 1405.595 C 465.089 1430.134, 466.239 1471.886, 470.699 1491 L 471.282 1493.500 468.891 1491.343 C 466.030 1488.762, 456.122 1483.772, 416.938 1465.177 C 362.213 1439.209, 343.578 1432.142, 310 1424.624 C 292.978 1420.813, 280.459 1419.547, 260 1419.566 C 242.280 1419.582, 238.313 1419.882, 230.744 1421.775 C 211.322 1426.634, 205.348 1433.825, 211.014 1445.530 C 216.808 1457.497, 247.512 1483.174, 268.951 1493.980 C 296.128 1507.678, 346.073 1521.108, 384.500 1525.050 C 405.646 1527.220, 436.761 1524.781, 456 1519.447 C 472.320 1514.922, 491.858 1504.327, 499.518 1495.849 C 509.416 1484.893, 526.170 1454.058, 533.395 1433.500 C 538.227 1419.751, 543.373 1401.531, 545.947 1389.063 C 554.874 1345.818, 555.097 1291.761, 546.404 1278.494 C 542.957 1273.232, 536.789 1271.699, 531.349 1274.750 M 1447.893 1274.497 C 1441.556 1277.941, 1438.229 1289.609, 1437.341 1311.500 C 1435.343 1360.781, 1446.641 1415.937, 1467.455 1458.500 C 1475.071 1474.076, 1484.225 1488.922, 1490.482 1495.849 C 1498.142 1504.327, 1517.680 1514.922, 1534 1519.447 C 1553.239 1524.781, 1584.354 1527.220, 1605.500 1525.050 C 1643.927 1521.108, 1693.872 1507.678, 1721.049 1493.980 C 1742.488 1483.174, 1773.192 1457.497, 1778.986 1445.530 C 1784.652 1433.825, 1778.678 1426.634, 1759.256 1421.775 C 1751.687 1419.882, 1747.720 1419.582, 1730 1419.566 C 1709.541 1419.547, 1697.022 1420.813, 1680 1424.624 C 1646.422 1432.142, 1627.787 1439.209, 1573.062 1465.177 C 1533.878 1483.772, 1523.970 1488.762, 1521.109 1491.343 L 1518.718 1493.500 1519.301 1491 C 1523.761 1471.886, 1524.911 1430.134, 1521.654 1405.595 C 1514.937 1354.999, 1495.711 1310.715, 1468.346 1282.814 C 1459.097 1273.383, 1453.860 1271.254, 1447.893 1274.497 M 614.932 1393.828 C 603.628 1400.997, 589.610 1422.512, 582.567 1443.500 C 573.835 1469.520, 569.017 1514.829, 571.934 1543.500 C 573.968 1563.503, 580.097 1589.331, 585.185 1599.347 C 586.260 1601.463, 586.931 1603.403, 586.676 1603.658 C 586.420 1603.913, 583.126 1603.204, 579.356 1602.083 C 571.755 1599.822, 533.545 1592.806, 519.500 1591.092 C 503.618 1589.155, 486.072 1588.003, 462.500 1587.350 C 443.576 1586.826, 437.196 1587.022, 426.500 1588.459 C 395.643 1592.605, 365.781 1603.592, 354.090 1615.100 C 347.955 1621.139, 342.809 1631.254, 342.213 1638.446 C 341.801 1643.416, 342.001 1643.995, 345.452 1647.815 C 355.891 1659.370, 374.063 1664.187, 418.141 1667.083 C 447.317 1668.999, 470.578 1667.955, 496 1663.587 C 548.586 1654.551, 571.602 1647.550, 595.280 1633.389 C 612.327 1623.193, 616.772 1616.183, 629.131 1580 C 638.612 1552.242, 642.805 1527.395, 645.044 1485.693 C 646.517 1458.267, 644.056 1424.838, 639.386 1408.837 C 634.668 1392.667, 625.569 1387.083, 614.932 1393.828 M 1359.738 1393.124 C 1351.557 1399.227, 1347.387 1415.351, 1344.978 1450.193 C 1342.798 1481.723, 1347.209 1530.360, 1355.027 1561 C 1359.055 1576.786, 1368.215 1601.748, 1374.211 1613.282 C 1380.062 1624.538, 1389.018 1631.537, 1410.285 1641.475 C 1430.487 1650.916, 1449.527 1655.945, 1494 1663.587 C 1519.422 1667.955, 1542.683 1668.999, 1571.859 1667.083 C 1615.937 1664.187, 1634.109 1659.370, 1644.548 1647.815 C 1647.999 1643.995, 1648.199 1643.416, 1647.787 1638.446 C 1647.191 1631.254, 1642.045 1621.139, 1635.910 1615.100 C 1624.219 1603.592, 1594.357 1592.605, 1563.500 1588.459 C 1552.804 1587.022, 1546.424 1586.826, 1527.500 1587.350 C 1503.928 1588.003, 1486.382 1589.155, 1470.500 1591.092 C 1456.455 1592.806, 1418.245 1599.822, 1410.644 1602.083 C 1406.874 1603.204, 1403.580 1603.913, 1403.324 1603.658 C 1403.069 1603.403, 1403.740 1601.463, 1404.815 1599.347 C 1409.903 1589.331, 1416.032 1563.503, 1418.066 1543.500 C 1420.983 1514.829, 1416.165 1469.520, 1407.433 1443.500 C 1400.390 1422.512, 1386.372 1400.997, 1375.068 1393.828 C 1369.606 1390.364, 1363.795 1390.097, 1359.738 1393.124 M 744.209 1476.954 C 738.288 1478.412, 734.308 1482.759, 729.063 1493.500 C 724.505 1502.835, 720.558 1518.174, 718.906 1532.971 C 717.182 1548.418, 718.270 1585.249, 720.901 1600.500 C 727.293 1637.547, 739.433 1669.389, 754.916 1689.711 C 758.776 1694.778, 761.596 1699.132, 761.182 1699.387 C 760.769 1699.643, 755.271 1699.387, 748.965 1698.819 C 736.480 1697.693, 688.646 1698.357, 662.324 1700.021 C 634.848 1701.758, 610.299 1704.941, 584.661 1710.091 C 536.164 1719.833, 511.416 1727.783, 501.500 1736.805 C 495.549 1742.220, 494 1744.978, 494 1750.157 C 494 1754.484, 494.467 1755.552, 498.074 1759.465 C 505.502 1767.523, 529.812 1777.591, 553.705 1782.506 C 572.432 1786.359, 587.089 1788.040, 607.500 1788.679 C 645.977 1789.884, 671.234 1783.995, 715.500 1763.500 C 735.718 1754.140, 759.366 1737.753, 774.578 1722.564 C 782.568 1714.585, 783.966 1712.649, 786.254 1706.390 C 789.937 1696.317, 793.733 1676.556, 795.097 1660.356 C 797.081 1636.791, 795.078 1599.987, 789.471 1557 C 785.084 1523.366, 775.680 1494.691, 765.791 1484.795 C 759.248 1478.246, 751.054 1475.269, 744.209 1476.954 M 1235.698 1477.459 C 1223.626 1481.717, 1216.351 1491.956, 1209.630 1514.151 C 1203.504 1534.380, 1201.114 1548.403, 1196.955 1588.500 C 1191.768 1638.515, 1194.169 1680.194, 1203.746 1706.390 C 1206.034 1712.649, 1207.432 1714.585, 1215.422 1722.564 C 1230.634 1737.753, 1254.282 1754.140, 1274.500 1763.500 C 1318.766 1783.995, 1344.023 1789.884, 1382.500 1788.679 C 1402.911 1788.040, 1417.568 1786.359, 1436.295 1782.506 C 1460.188 1777.591, 1484.498 1767.523, 1491.926 1759.465 C 1495.533 1755.552, 1496 1754.484, 1496 1750.157 C 1496 1744.978, 1494.451 1742.220, 1488.500 1736.805 C 1472.246 1722.016, 1394.572 1704.250, 1327.676 1700.021 C 1301.354 1698.357, 1253.520 1697.693, 1241.035 1698.819 C 1234.729 1699.387, 1229.231 1699.643, 1228.818 1699.387 C 1228.404 1699.132, 1231.224 1694.778, 1235.084 1689.711 C 1250.567 1669.389, 1262.707 1637.547, 1269.099 1600.500 C 1271.730 1585.249, 1272.818 1548.418, 1271.094 1532.971 C 1268.153 1506.619, 1259.547 1484.750, 1249.701 1478.609 C 1246.300 1476.488, 1239.935 1475.965, 1235.698 1477.459 M 981.906 1606.966 C 953.968 1610.518, 927.677 1625.678, 910.778 1647.980 C 903.896 1657.062, 896.441 1672.658, 893.319 1684.500 C 890.998 1693.306, 890.684 1696.410, 890.684 1710.500 C 890.684 1724.651, 890.991 1727.653, 893.342 1736.477 C 904.727 1779.211, 939.989 1809.213, 984.750 1814.251 C 1019.895 1818.207, 1057.161 1801.948, 1079.085 1773.093 C 1085.990 1764.005, 1093.484 1748.390, 1096.658 1736.477 C 1099.009 1727.653, 1099.316 1724.651, 1099.316 1710.500 C 1099.316 1696.410, 1099.002 1693.306, 1096.681 1684.500 C 1093.554 1672.638, 1086.101 1657.059, 1079.189 1647.937 C 1072.240 1638.766, 1059.666 1627.390, 1050.088 1621.608 C 1040.857 1616.036, 1027.335 1610.674, 1017.062 1608.513 C 1008.210 1606.651, 990.510 1605.872, 981.906 1606.966" stroke="none" fill="#fbfbfb" fill-rule="evenodd"/></svg>