<svg xmlns="http://www.w3.org/2000/svg" width="1439" height="890" viewBox="0 0 1439 890" version="1.1"><path d="" stroke="none" fill="#086cac" fill-rule="evenodd"/><path d="M 582.607 2.095 C 574.753 8.272, 572.217 24.051, 574.023 55.500 C 575.355 78.691, 578.960 105.316, 583.568 126 C 587.370 143.065, 589.373 149.694, 595.133 164.261 C 603.199 184.659, 625.423 225.183, 636.226 239.188 L 639.071 242.877 634.761 247.188 C 629.062 252.891, 626.671 258.239, 620.894 278.210 C 614.649 299.799, 611.133 308.761, 600.777 329.500 C 591.148 348.781, 588.420 356.251, 587.049 367.089 C 584.344 388.488, 591.501 409.748, 605.969 423.287 C 618.683 435.186, 652.489 447.947, 685 453.121 C 704.263 456.186, 737.737 456.186, 757 453.121 C 778.871 449.640, 800.277 443.065, 820.334 433.666 C 842.935 423.075, 855.203 402.842, 855.297 376 C 855.350 361.079, 853.485 354.946, 841.003 329 C 829.001 304.050, 826.830 298.456, 820.884 277.157 C 815.937 259.438, 813.013 252.960, 807.452 247.399 L 803.227 243.174 806.670 238.337 C 812.864 229.635, 826.186 206.821, 834.604 190.500 C 850.643 159.406, 857.554 137.558, 863.454 99.298 C 868.206 68.481, 869.912 30.198, 867.098 17.500 C 863.450 1.035, 855.207 -3.894, 842.178 2.599 C 826.008 10.657, 797.758 51.336, 775.925 98 C 752.118 148.884, 737.111 195.363, 737.020 218.500 L 737 223.500 721 223.500 L 705 223.500 705 217.926 C 705 196.173, 690.350 150.489, 667.377 100.606 C 645.507 53.118, 616.363 10.841, 599.811 2.593 C 593.213 -0.695, 586.404 -0.892, 582.607 2.095 M 504.572 16.900 C 500.427 19.045, 494.215 23.046, 490.768 25.792 C 482.922 32.041, 466.763 48.663, 461.222 56.183 C 445.352 77.725, 441.337 100.793, 451.569 111.642 C 455.581 115.896, 460.757 116.170, 467.976 112.512 C 485.037 103.867, 512.039 62.687, 519.541 33.873 C 521.557 26.128, 521.800 16.669, 520.038 14.546 C 517.885 11.952, 512.570 12.761, 504.572 16.900 M 922.263 14.250 C 917.635 20.143, 923.639 43.663, 935.218 65 C 946.781 86.306, 964.064 107.465, 974.029 112.514 C 981.243 116.170, 986.420 115.895, 990.431 111.642 C 1000.101 101.389, 997.305 80.766, 983.413 59.869 C 977.990 51.712, 960.472 33.139, 951.369 25.896 C 939.093 16.127, 925.165 10.555, 922.263 14.250 M 384.289 84.800 C 382.192 86.133, 380 92.746, 380.006 97.718 C 380.021 110.044, 384.968 131.856, 391.075 146.526 C 397.881 162.875, 411.683 179.257, 423.588 185.118 C 428.941 187.753, 431.378 188.367, 436.352 188.331 C 452.041 188.218, 474.789 176.033, 498.500 155.041 C 514.577 140.808, 523.849 124.439, 518.398 119.915 C 515.979 117.907, 503.650 118.496, 496.566 120.957 C 488.601 123.725, 479.088 129.016, 470 135.735 C 461.093 142.319, 445.297 158.175, 439.024 166.827 L 434.548 173.001 432.878 165.240 C 429.372 148.942, 415.553 116.010, 406.693 102.838 C 396.247 87.308, 389.231 81.660, 384.289 84.800 M 1050.500 85.166 C 1047.388 86.770, 1038.130 97.983, 1032.844 106.552 C 1025.177 118.978, 1012.138 151.222, 1009.136 165.176 L 1007.452 173.001 1002.976 166.791 C 996.815 158.243, 981.038 142.428, 972 135.740 C 962.919 129.021, 953.407 123.727, 945.434 120.957 C 938.350 118.496, 926.021 117.907, 923.602 119.915 C 917.912 124.637, 927.632 141.056, 945.329 156.616 C 963.378 172.487, 981.494 183.213, 996.749 187.061 C 1006.632 189.554, 1012.270 188.801, 1021 183.824 C 1031.634 177.760, 1044.703 161.471, 1050.925 146.526 C 1056.985 131.970, 1061.987 110.226, 1061.996 98.399 C 1062.005 86.868, 1057.426 81.597, 1050.500 85.166 M 351.790 184.058 C 345.489 187.731, 351.814 211.055, 363.962 228.944 C 376.105 246.826, 396.212 262.066, 413.500 266.493 C 423.944 269.167, 431.267 266.771, 447.858 255.250 C 473.546 237.412, 496.396 204.414, 489.128 195.654 C 487.185 193.313, 479.286 193.520, 473.344 196.067 C 465.321 199.506, 452.173 208.865, 443.946 216.993 C 435.747 225.094, 428.862 234.808, 422.402 247.392 C 420.256 251.572, 418.275 254.991, 418 254.991 C 417.725 254.991, 413.312 248.051, 408.192 239.569 C 395.999 219.365, 388.697 209.587, 377.062 197.878 C 364.877 185.617, 356.745 181.169, 351.790 184.058 M 1079.747 185.567 C 1066.823 192.295, 1049.350 213.293, 1030.917 244.250 C 1027.396 250.162, 1024.287 254.995, 1024.008 254.988 C 1023.729 254.982, 1021.494 251.122, 1019.042 246.412 C 1012 232.883, 1007.184 226.098, 998.472 217.434 C 989.981 208.989, 976.851 199.580, 968.656 196.067 C 962.714 193.520, 954.815 193.313, 952.872 195.654 C 945.713 204.282, 968.021 236.748, 993.546 254.849 C 1009.966 266.493, 1018.057 269.190, 1028.437 266.479 C 1040.710 263.273, 1052.709 256.066, 1064.642 244.733 C 1077.215 232.793, 1088.270 214.163, 1091.561 199.370 C 1094.857 184.555, 1090.799 179.814, 1079.747 185.567 M 469.331 269.833 C 464.456 273.686, 456.550 283.499, 450.237 293.532 C 445.486 301.084, 435.588 322.312, 432.069 332.500 L 428.959 341.500 420.897 333.756 C 402.383 315.971, 371.676 293.267, 360.462 289.072 C 353.466 286.454, 350.541 286.459, 347.906 289.094 C 345.382 291.618, 345.832 295.617, 349.571 303.877 C 355.502 316.976, 372.483 335.006, 386.262 342.831 C 399.579 350.394, 406.650 352.379, 420.500 352.444 C 431.267 352.494, 433.014 352.249, 437.500 350.053 C 452.723 342.603, 475.547 308.069, 481.163 283.990 C 483.127 275.569, 483.198 274.304, 481.916 270.595 C 480.715 267.121, 480.031 266.454, 477.405 266.198 C 475.044 265.968, 473.130 266.830, 469.331 269.833 M 960.338 269.733 C 957.280 277.053, 962.523 294.670, 973.573 314.206 C 984.297 333.164, 994.905 345.350, 1004.784 350.060 C 1017.985 356.353, 1041.249 352.388, 1059.220 340.783 C 1071.933 332.573, 1087.036 315.788, 1092.429 303.877 C 1096.168 295.617, 1096.618 291.618, 1094.094 289.094 C 1091.442 286.442, 1088.534 286.454, 1081.336 289.147 C 1070.324 293.267, 1040.284 315.525, 1021.268 333.653 L 1013.036 341.500 1009.929 332.500 C 1006.371 322.192, 996.849 301.806, 991.416 292.862 C 985.965 283.889, 976.545 272.407, 971.833 268.994 C 969.504 267.307, 966.434 266, 964.799 266 C 962.394 266, 961.631 266.639, 960.338 269.733 M 668.227 275.755 C 657.564 279.283, 652.972 285.772, 648.410 303.757 C 643.178 324.380, 646.989 333.757, 662.514 338.466 C 668.164 340.180, 677.633 340.470, 681.383 339.045 C 685.069 337.643, 691.527 331.482, 694.338 326.685 C 698.847 318.991, 701.351 308.648, 700.648 300.623 C 699.872 291.765, 698.615 287.225, 695.738 282.882 C 691.049 275.805, 678.166 272.467, 668.227 275.755 M 757.667 275.379 C 748.543 277.935, 743.983 283.533, 742.069 294.528 C 740.482 303.638, 740.738 307.552, 743.500 316.448 C 746.225 325.221, 750.738 332.174, 756.614 336.653 C 760.087 339.299, 760.992 339.500, 769.425 339.499 C 777.134 339.499, 779.344 339.103, 784.107 336.870 C 791.701 333.310, 795.025 328.812, 795.719 321.158 C 796.657 310.815, 790.780 289.828, 784.972 282.783 C 779.306 275.908, 767.350 272.666, 757.667 275.379 M 498.155 332.531 C 493.857 334.397, 482.502 345.862, 477.716 353.167 C 468.210 367.677, 461.654 385.589, 457.405 408.658 C 457.049 410.596, 455.740 409.870, 444.619 401.570 C 416.594 380.652, 393.339 369, 379.617 369 C 364.567 369, 367.277 380.378, 386.812 399.210 C 397.010 409.041, 407.821 415.823, 419.500 419.718 C 426.698 422.118, 429.004 422.391, 442.500 422.443 C 456.436 422.496, 457.855 422.327, 462.500 420.058 C 468.935 416.915, 482.011 403.757, 488.830 393.562 C 499.507 377.598, 507.952 356.148, 508.769 342.916 C 509.222 335.583, 509.147 335.261, 506.484 333.166 C 503.273 330.641, 502.622 330.591, 498.155 332.531 M 935.516 333.166 C 932.853 335.261, 932.778 335.583, 933.231 342.916 C 934.048 356.148, 942.493 377.598, 953.170 393.562 C 959.989 403.757, 973.065 416.915, 979.500 420.058 C 984.145 422.327, 985.564 422.496, 999.500 422.443 C 1012.996 422.391, 1015.302 422.118, 1022.500 419.718 C 1034.134 415.838, 1044.994 409.037, 1055.083 399.311 C 1064.544 390.190, 1070.436 382.452, 1071.957 377.150 C 1074.177 369.410, 1064.573 366.728, 1050.355 371.116 C 1036.853 375.284, 1018.145 386.086, 996.749 402.067 C 983.802 411.738, 984.957 411.694, 983.478 402.568 C 982.127 394.231, 975.655 374.123, 971.735 366.089 C 964.496 351.248, 951.522 335.871, 943.282 332.368 C 939.082 330.582, 938.759 330.615, 935.516 333.166 M 711.643 352.970 C 708.086 354.108, 705.240 356.635, 703.309 360.370 C 701.979 362.941, 701.997 363.703, 703.476 367.576 C 705.185 372.050, 710.431 377.453, 714.611 379.042 C 717.273 380.054, 717.526 381.107, 715.878 384.316 C 709.177 397.358, 693.115 396.303, 688.222 382.500 C 687.209 379.645, 687.155 379.621, 687.101 382 C 687.003 386.274, 690.580 392.732, 694.034 394.518 C 698.355 396.752, 706.902 397.517, 711.306 396.064 C 713.283 395.412, 716.273 393.315, 717.950 391.404 L 721 387.930 724.050 391.404 C 725.727 393.315, 728.717 395.412, 730.694 396.064 C 735.098 397.517, 743.645 396.752, 747.966 394.518 C 751.424 392.729, 755.001 386.264, 754.892 382 L 754.828 379.500 754.012 382.209 C 751.610 390.176, 743.676 395.067, 736.352 393.095 C 732.417 392.035, 728.252 388.461, 726.122 384.316 C 724.474 381.107, 724.727 380.054, 727.389 379.042 C 731.593 377.444, 736.819 372.040, 738.554 367.499 C 740.156 363.302, 740.147 362.938, 738.369 359.900 C 735 354.148, 731.961 352.676, 722.773 352.350 C 718.223 352.188, 713.214 352.468, 711.643 352.970 M 529.643 388.066 C 523.282 393.070, 514.897 407.139, 510.313 420.500 C 505.789 433.685, 503.756 456.210, 505.909 469.299 C 506.463 472.671, 506.371 473.958, 505.599 473.629 C 504.995 473.371, 495.500 468.897, 484.500 463.687 C 461.951 453.006, 449.238 448.594, 434.573 446.360 C 412.033 442.926, 395.477 448.449, 401.366 457.436 C 406.292 464.954, 420.890 475.655, 432.135 479.992 C 453.736 488.322, 478.568 491.741, 495 488.648 C 506.701 486.445, 516.968 481.174, 521.450 475.068 C 533.398 458.792, 541.136 432.100, 541.328 406.500 C 541.404 396.488, 541.094 393.837, 539.459 390.500 C 537.088 385.659, 533.754 384.833, 529.643 388.066 M 903.391 388.526 C 899.256 394.838, 900.088 420.183, 905.082 440 C 908.169 452.252, 914.730 467.140, 920.514 475.018 C 923.058 478.485, 925.840 480.655, 931.225 483.374 C 946.719 491.198, 966.376 491.964, 991 485.705 C 1008.974 481.136, 1017.780 477.304, 1028.063 469.580 C 1038.495 461.743, 1042.789 456.147, 1041.401 452.198 C 1039.310 446.253, 1025.582 443.785, 1008.413 446.266 C 993.070 448.484, 980.559 452.764, 957.500 463.687 C 946.500 468.897, 936.993 473.376, 936.373 473.640 C 935.566 473.983, 935.483 472.897, 936.080 469.810 C 937.400 462.979, 937.124 446.313, 935.528 436.500 C 933.040 421.204, 927.231 406.602, 919.334 395.795 C 912.303 386.173, 906.628 383.586, 903.391 388.526 M 564.179 436.503 C 549.435 448.909, 543.205 487.672, 551.673 514.315 C 552.515 516.963, 553.045 519.260, 552.852 519.420 C 552.658 519.580, 546.425 518.625, 539 517.299 C 529.687 515.636, 519.909 514.711, 507.472 514.317 C 491.237 513.802, 488.602 513.957, 480.972 515.874 C 469.206 518.831, 460.507 523.267, 457.520 527.833 C 453.956 533.283, 453.390 536.669, 455.631 539.147 C 460.528 544.561, 468.628 546.535, 490.057 547.535 C 502.196 548.102, 506.494 547.879, 517 546.138 C 539.512 542.409, 553.245 537.864, 561.861 531.292 C 568.465 526.255, 575.393 506.710, 578.033 485.671 C 579.436 474.494, 578.804 448.928, 576.962 442.330 C 574.666 434.108, 569.710 431.849, 564.179 436.503 M 868.112 436.110 C 864.574 439.908, 863.499 447.259, 863.522 467.500 C 863.550 492.230, 866.737 508.513, 874.615 524.188 C 879.880 534.664, 894.694 541.118, 925 546.138 C 935.506 547.879, 939.804 548.102, 951.943 547.535 C 973.339 546.536, 981.474 544.559, 986.344 539.174 C 988.689 536.581, 987.925 532.577, 984.071 527.256 C 980.766 522.694, 973.150 518.953, 960.818 515.835 C 953.415 513.963, 950.681 513.805, 934.528 514.317 C 922.091 514.711, 912.313 515.636, 903 517.299 C 895.575 518.625, 889.360 519.598, 889.189 519.461 C 889.018 519.324, 889.918 515.901, 891.189 511.856 C 893.237 505.338, 893.499 502.505, 893.495 487 C 893.490 473.153, 893.102 468.039, 891.635 462.500 C 888.994 452.532, 884.503 443.560, 879.586 438.429 C 874.783 433.415, 871.282 432.708, 868.112 436.110 M 614.680 471.969 C 609.637 477.961, 608.498 483.796, 608.523 503.500 C 608.542 519.097, 608.851 522.623, 610.834 529.908 C 613.480 539.625, 617.549 549.026, 621.777 555.187 L 624.736 559.500 602.618 559.600 C 573.968 559.729, 550.557 562.995, 530.506 569.659 C 522.020 572.479, 516 577.088, 516 580.764 C 516 588.306, 537.073 595.695, 561.566 596.741 C 576.687 597.386, 586.399 595.588, 601 589.439 C 620.519 581.220, 634.414 570.021, 637.525 560 C 642.514 543.933, 639.329 495.443, 632.201 478.936 C 628.088 469.410, 619.654 466.057, 614.680 471.969 M 815.190 471.494 C 809.419 476.349, 805.762 487.979, 803.427 508.895 C 800.792 532.504, 802.062 556.418, 806.397 564.801 C 811.992 575.621, 839.559 591.458, 859.934 595.558 C 880.036 599.604, 914.741 593.986, 923.450 585.277 C 926.570 582.157, 926.657 580.105, 923.822 576.501 C 916.351 567.003, 869.082 558.243, 830.371 559.182 L 817.243 559.500 820.212 555.187 C 830.308 540.527, 835.610 517.085, 833.952 494.443 C 832.420 473.517, 824.418 463.729, 815.190 471.494 M 714 522.132 C 700.299 524.421, 688.446 533.272, 682.226 545.858 C 678.604 553.185, 678.500 553.705, 678.500 564.448 C 678.500 574.762, 678.709 575.942, 681.638 582.123 C 697.469 615.536, 743.448 616.176, 759.741 583.210 C 763.401 575.804, 763.500 575.312, 763.500 564.552 C 763.500 554.203, 763.297 553.072, 760.315 546.777 C 751.934 529.084, 732.925 518.969, 714 522.132 M 64.500 723.078 C 28.749 725.912, 7.751 745.617, 1.385 782.305 C -0.916 795.569, -0.072 826.095, 2.925 838 C 7.964 858.012, 19.663 873.800, 35.046 881.345 C 60.483 893.822, 96.960 892.279, 118.591 877.811 C 131.650 869.077, 140.087 855.616, 144.579 836.353 C 148.428 819.846, 148.155 789.869, 144.007 773.413 C 136.567 743.902, 115.208 725.499, 86 723.434 C 81.875 723.142, 77.375 722.782, 76 722.634 C 74.625 722.486, 69.450 722.685, 64.500 723.078 M 223.500 723.146 C 188.250 725.675, 166.871 745.539, 160.558 781.628 C 158.520 793.283, 158.498 818.858, 160.517 830.436 C 165.903 861.323, 182.054 880.089, 209.143 886.933 C 232.850 892.922, 260.509 889.236, 277.591 877.811 C 294.712 866.359, 303.551 847.846, 306.028 818.250 C 307.983 794.900, 304.726 773.058, 296.923 757.181 C 284.499 731.901, 259.967 720.529, 223.500 723.146 M 370.999 723.083 C 346.678 724.750, 329.530 737.024, 322.502 757.796 C 318.421 769.858, 317.879 779.786, 318.200 836.500 L 318.500 889.500 338 889.500 L 357.500 889.500 358.004 833.500 C 358.556 772.103, 358.386 773.773, 364.668 767.814 C 368.623 764.062, 372.434 762.842, 380.226 762.832 C 389.300 762.821, 394.419 765.605, 397.946 772.471 L 400.500 777.443 401 833.471 L 401.500 889.500 421 889.500 L 440.500 889.500 440.793 837 C 441.100 781.737, 440.508 769.963, 436.852 758.737 C 431.015 740.812, 418.302 729.194, 399.500 724.602 C 392.230 722.827, 382.389 722.302, 370.999 723.083 M 524 723.083 C 486.317 725.930, 463.195 744.117, 454.818 777.500 C 452.858 785.310, 452.559 789.079, 452.559 806 C 452.559 828.749, 454.209 837.557, 461.177 852 C 466.686 863.419, 478.011 874.916, 489 880.244 C 504.982 887.993, 520.642 890.226, 556 889.797 L 580.500 889.500 580.500 838 L 580.500 786.500 561 786.500 L 541.500 786.500 541.236 818.399 L 540.972 850.297 532.168 849.673 C 504.420 847.703, 492 834.200, 492 806 C 492 779.677, 503.492 765.770, 527.500 763.040 C 532.450 762.477, 540.663 762.013, 545.750 762.008 C 554.656 762, 555 761.917, 555 759.764 C 555 753.318, 551.641 724.324, 550.769 723.250 C 549.634 721.851, 541.020 721.797, 524 723.083 M 645 723.094 C 618.115 724.974, 601.263 738.566, 594.284 764 C 592.665 769.899, 592.500 776.001, 592.500 830 L 592.500 889.500 612 889.500 L 631.500 889.500 632 870.500 L 632.500 851.500 653.500 851.500 L 674.500 851.500 674.772 870.750 L 675.043 890 694.522 890 L 714 890 714 831.958 C 714 767.071, 713.800 764.664, 707.280 751.023 C 697.269 730.078, 676.746 720.874, 645 723.094 M 777.244 722.763 C 776.250 723.446, 776.042 740.901, 776.244 806.563 L 776.500 889.500 813.987 889.762 C 855.595 890.054, 864.470 889.248, 874.847 884.237 C 885.822 878.937, 893.771 868.496, 897.105 855 C 897.852 851.975, 898.471 844.775, 898.481 839 C 898.496 829.729, 898.193 827.856, 895.886 823 C 892.805 816.512, 887.503 810.981, 881.973 808.488 C 878.050 806.719, 876.747 805, 879.329 805 C 880.059 805, 882.773 803.598, 885.359 801.885 C 895.163 795.392, 899.736 784.059, 898.630 769 C 897.143 748.757, 889.748 735.551, 875.946 728.493 C 865.474 723.139, 862.500 722.818, 819 722.343 C 796.725 722.099, 777.935 722.288, 777.244 722.763 M 910.417 723.357 C 910.130 724.103, 910.051 751.215, 910.241 783.607 C 910.623 848.985, 910.453 847.173, 917.577 861.764 C 923.820 874.553, 935.520 883.455, 951.500 887.576 C 960.885 889.996, 981.703 890.039, 991.387 887.658 C 1011.886 882.619, 1025.534 868.299, 1030.644 846.471 C 1033.016 836.336, 1033.977 725.056, 1031.708 723.173 C 1030.643 722.289, 1025.195 722.029, 1011.870 722.227 L 993.500 722.500 992.959 778 C 992.398 835.437, 992.329 836.372, 988.182 842.808 C 983.857 849.519, 968.689 851.752, 960.013 846.956 C 957.035 845.309, 954.680 842.965, 953.013 839.987 L 950.500 835.500 950.218 779.539 C 950.002 736.913, 949.645 723.394, 948.718 722.804 C 948.048 722.379, 939.273 722.024, 929.219 722.015 C 914.740 722.003, 910.829 722.282, 910.417 723.357 M 1096.500 723.071 C 1071.057 725.078, 1054.810 737.048, 1047.269 759.343 L 1044.510 767.500 1044.212 828.750 L 1043.914 890 1063.457 890 L 1083 890 1083.020 839.250 C 1083.031 810.440, 1083.477 785.475, 1084.051 781.502 C 1085.913 768.612, 1092.392 762.824, 1104.954 762.824 C 1108.632 762.824, 1113.238 763.490, 1115.189 764.306 C 1118.559 765.714, 1122.644 770.138, 1124.602 774.500 C 1125.096 775.600, 1125.725 801.925, 1126 833 L 1126.500 889.500 1146 889.500 L 1165.500 889.500 1165.500 829.500 C 1165.500 774.426, 1165.350 768.966, 1163.673 763 C 1155.339 733.359, 1133.165 720.178, 1096.500 723.071 M 1250 723.008 C 1218.370 725.136, 1196.402 738.518, 1185.546 762.272 C 1178.748 777.146, 1175.862 797.885, 1177.824 817.750 C 1179.353 833.230, 1181.253 840.554, 1186.682 851.888 C 1196.069 871.485, 1213.507 883.472, 1239.500 888.195 C 1244.119 889.034, 1256.535 889.472, 1276 889.483 L 1305.500 889.500 1305.759 837.729 L 1306.018 785.958 1286.259 786.229 L 1266.500 786.500 1266.236 818.250 L 1265.972 850 1261.236 849.992 C 1248.135 849.972, 1235.541 845.802, 1228.631 839.198 C 1215.344 826.498, 1213.080 794.996, 1224.259 778.382 C 1231.883 767.053, 1241.565 763.209, 1264.788 762.291 C 1273.196 761.959, 1280.242 761.418, 1280.445 761.089 C 1281.318 759.676, 1276.848 723.523, 1275.711 722.800 C 1274.321 721.917, 1265.117 721.991, 1250 723.008 M 1369.500 723.164 C 1348.061 724.747, 1332.510 734.427, 1324.476 751.190 C 1317.611 765.515, 1317.500 766.793, 1317.500 831.500 L 1317.500 889.500 1337 889.500 L 1356.500 889.500 1357 870.500 L 1357.500 851.500 1378.500 851.500 L 1399.500 851.500 1400 870.500 L 1400.500 889.500 1419.750 889.772 L 1439 890.043 1438.985 830.272 C 1438.969 764.152, 1438.942 763.820, 1432.536 750.515 C 1422.668 730.019, 1401.436 720.807, 1369.500 723.164 M 67.500 762.996 C 60.830 763.990, 56.130 766.069, 51.639 770.012 C 43.267 777.363, 40 787.517, 40 806.184 C 40 829.070, 45.347 840.519, 59 846.872 C 66.368 850.301, 80.984 850.547, 88 847.360 C 101.654 841.159, 107.253 829.343, 107.361 806.500 C 107.496 778.113, 98.299 764.627, 77.500 762.711 C 74.750 762.458, 70.250 762.586, 67.500 762.996 M 226.500 762.996 C 219.830 763.990, 215.130 766.069, 210.639 770.012 C 202.267 777.363, 199 787.517, 199 806.184 C 199 829.070, 204.347 840.519, 218 846.872 C 222.703 849.061, 224.876 849.428, 233 849.408 C 240.735 849.388, 243.482 848.950, 247.788 847.052 C 258.193 842.465, 263.967 832.740, 266.042 816.306 C 268.539 796.523, 263.936 777.381, 254.799 769.560 C 248.308 764.004, 237.130 761.411, 226.500 762.996 M 648.753 763.074 C 642.355 764.097, 637.922 767.032, 634.962 772.201 C 632.644 776.249, 632.481 777.536, 632.169 794.270 L 631.837 812.040 653.169 811.770 L 674.500 811.500 674.385 796 C 674.321 787.475, 673.740 778.582, 673.092 776.237 C 670.300 766.121, 661.033 761.109, 648.753 763.074 M 816.667 762.667 C 816.300 763.033, 816 768.433, 816 774.667 L 816 786 833.550 786 C 853.660 786, 856.069 785.351, 858.033 779.401 C 859.564 774.760, 858.702 768.258, 856.226 765.782 C 855.168 764.724, 852.546 763.450, 850.401 762.953 C 845.902 761.909, 817.664 761.670, 816.667 762.667 M 1377 762.615 C 1376.175 762.754, 1373.826 763.140, 1371.779 763.473 C 1367.156 764.227, 1362.587 767.980, 1359.725 773.376 C 1357.725 777.146, 1357.535 778.958, 1357.519 794.500 L 1357.500 811.500 1378.500 811.500 L 1399.500 811.500 1399.500 794.470 C 1399.500 778.173, 1399.390 777.226, 1396.946 772.470 C 1395.175 769.023, 1393.183 766.848, 1390.446 765.370 C 1386.728 763.364, 1380.342 762.055, 1377 762.615 M 816 838.018 L 816 850.159 834.479 849.829 L 852.959 849.500 855.729 846.727 C 858.136 844.319, 858.500 843.173, 858.500 838 C 858.500 832.827, 858.136 831.681, 855.730 829.273 L 852.959 826.500 834.480 826.188 L 816 825.876 816 838.018" stroke="none" fill="#046cac" fill-rule="evenodd"/></svg>